<svg id="svg" version="1.1" xmlns="http://www.w3.org/2000/svg" xmlns:xlink="http://www.w3.org/1999/xlink" width="400" height="400" viewBox="0, 0, 400,400"><g id="svgg"><path id="path0" d="M388.667 14.667 C 388.520 14.813,388.400 15.263,388.400 15.667 C 388.400 16.591,389.923 16.666,390.271 15.760 C 390.599 14.905,389.308 14.026,388.667 14.667 M66.000 72.058 C 66.000 72.246,65.730 72.400,65.400 72.400 C 64.981 72.400,64.800 72.822,64.800 73.800 C 64.800 74.650,64.996 75.202,65.300 75.206 C 65.633 75.210,65.600 75.342,65.200 75.600 C 64.687 75.931,64.702 75.989,65.300 75.994 C 65.685 75.997,66.000 76.191,66.000 76.424 C 66.000 76.657,66.180 76.736,66.400 76.600 C 66.620 76.464,66.800 76.713,66.800 77.153 C 66.800 77.593,66.983 78.066,67.207 78.204 C 67.430 78.342,67.521 78.604,67.409 78.786 C 67.296 78.967,67.474 79.219,67.802 79.346 C 68.131 79.472,68.400 79.851,68.400 80.187 C 68.400 80.524,68.580 80.800,68.800 80.800 C 69.020 80.800,69.200 81.070,69.200 81.400 C 69.200 81.730,69.470 82.000,69.800 82.000 C 70.177 82.000,70.400 82.380,70.400 83.024 C 70.400 83.587,70.566 83.945,70.768 83.820 C 70.970 83.695,71.508 84.089,71.964 84.696 C 72.419 85.303,72.949 85.991,73.142 86.225 C 73.334 86.459,73.702 87.044,73.960 87.525 C 74.217 88.006,74.702 88.400,75.038 88.400 C 75.373 88.400,75.557 88.545,75.447 88.723 C 75.338 88.901,75.700 89.576,76.253 90.223 C 76.806 90.870,77.127 91.147,76.967 90.838 C 76.769 90.456,76.833 90.373,77.165 90.579 C 77.434 90.745,77.558 91.133,77.440 91.440 C 77.322 91.748,77.399 92.000,77.613 92.000 C 77.826 92.000,78.000 92.270,78.000 92.600 C 78.000 92.930,78.270 93.200,78.600 93.200 C 78.934 93.200,79.200 93.556,79.200 94.004 C 79.200 94.446,79.740 95.372,80.400 96.063 C 81.060 96.754,81.600 97.568,81.600 97.872 C 81.600 98.176,81.870 98.529,82.200 98.655 C 82.530 98.782,82.800 99.136,82.800 99.443 C 82.800 99.752,83.200 100.003,83.700 100.006 C 84.357 100.011,84.454 100.105,84.057 100.356 C 83.673 100.600,83.646 100.781,83.964 100.978 C 84.211 101.130,84.311 101.421,84.186 101.623 C 84.061 101.825,84.238 101.884,84.579 101.753 C 85.045 101.574,85.200 101.781,85.200 102.581 C 85.200 103.167,85.361 103.548,85.558 103.426 C 85.755 103.304,86.027 103.492,86.161 103.844 C 86.297 104.196,86.665 104.384,86.983 104.262 C 87.367 104.115,87.485 104.234,87.337 104.620 C 87.214 104.939,87.314 105.200,87.557 105.200 C 87.801 105.200,88.000 105.560,88.000 106.000 C 88.000 106.533,88.267 106.800,88.800 106.800 C 89.670 106.800,89.897 107.434,89.120 107.693 C 88.746 107.818,88.746 107.919,89.120 108.150 C 89.384 108.314,89.600 108.257,89.600 108.024 C 89.600 107.791,89.780 107.600,90.000 107.600 C 90.220 107.600,90.400 108.140,90.400 108.800 C 90.400 109.600,90.600 110.000,91.000 110.000 C 91.371 110.000,91.600 110.376,91.600 110.987 C 91.600 111.701,91.767 111.911,92.200 111.745 C 92.612 111.586,92.800 111.769,92.800 112.330 C 92.800 112.804,93.147 113.256,93.629 113.409 C 94.099 113.558,94.370 113.902,94.254 114.203 C 94.142 114.495,94.309 114.833,94.625 114.954 C 94.941 115.076,95.200 115.431,95.200 115.745 C 95.200 116.058,95.456 116.413,95.769 116.533 C 96.082 116.653,96.397 117.167,96.469 117.676 C 96.556 118.286,96.913 118.644,97.523 118.731 C 98.272 118.837,98.357 118.969,97.974 119.431 C 97.586 119.899,97.693 120.000,98.576 120.000 C 99.366 120.000,99.627 120.185,99.562 120.700 C 99.378 122.149,100.070 123.675,100.822 123.478 C 101.325 123.347,101.474 123.464,101.318 123.869 C 101.179 124.231,101.407 124.529,101.925 124.665 C 102.453 124.802,102.799 125.267,102.877 125.941 C 102.945 126.528,103.223 126.955,103.500 126.900 C 103.775 126.845,104.022 126.980,104.050 127.200 C 104.078 127.420,104.123 127.763,104.150 127.961 C 104.178 128.160,104.695 128.782,105.300 129.342 C 105.905 129.903,106.400 130.550,106.400 130.781 C 106.400 131.011,106.715 131.203,107.100 131.206 C 107.698 131.211,107.713 131.269,107.200 131.600 C 106.800 131.858,106.767 131.990,107.100 131.994 C 107.375 131.997,107.600 132.233,107.600 132.519 C 107.600 132.804,108.132 133.479,108.783 134.019 C 109.434 134.558,109.974 135.334,109.983 135.743 C 109.994 136.224,110.204 136.407,110.580 136.263 C 110.967 136.115,111.085 136.233,110.937 136.620 C 110.802 136.973,110.957 137.200,111.334 137.200 C 111.674 137.200,112.063 137.378,112.197 137.595 C 112.337 137.822,112.177 137.889,111.821 137.753 C 110.859 137.384,111.089 138.312,112.092 138.849 C 113.278 139.484,113.654 139.916,114.601 141.734 C 115.040 142.578,115.720 143.442,116.111 143.654 C 116.502 143.867,116.717 144.211,116.588 144.420 C 116.458 144.629,116.633 144.800,116.976 144.800 C 117.319 144.800,117.623 145.070,117.650 145.400 C 117.746 146.553,117.803 146.736,118.164 147.067 C 118.376 147.260,118.408 147.190,118.241 146.900 C 118.082 146.625,118.143 146.400,118.376 146.400 C 118.609 146.400,118.800 146.850,118.800 147.400 C 118.800 148.022,119.027 148.400,119.400 148.400 C 119.730 148.400,120.000 148.670,120.000 149.000 C 120.000 149.330,120.270 149.600,120.600 149.600 C 120.977 149.600,121.200 149.980,121.200 150.624 C 121.200 151.187,121.360 151.549,121.555 151.428 C 122.019 151.141,122.937 152.254,122.637 152.741 C 122.509 152.947,122.674 153.219,123.002 153.346 C 123.331 153.472,123.600 153.861,123.600 154.211 C 123.600 154.561,123.768 154.743,123.973 154.617 C 124.178 154.490,124.667 154.929,125.059 155.593 C 125.452 156.257,125.914 156.800,126.086 156.800 C 126.259 156.800,126.400 157.171,126.400 157.624 C 126.400 158.077,126.581 158.335,126.803 158.198 C 127.024 158.061,127.313 158.230,127.445 158.572 C 127.576 158.915,127.826 159.107,128.000 159.000 C 128.174 158.893,128.423 159.083,128.554 159.423 C 128.689 159.777,128.622 159.937,128.395 159.797 C 128.178 159.663,128.000 159.743,128.000 159.976 C 128.000 160.209,128.291 160.400,128.647 160.400 C 129.096 160.400,129.230 160.644,129.084 161.200 C 128.948 161.720,129.072 162.000,129.437 162.000 C 129.747 162.000,130.000 162.248,130.000 162.551 C 130.000 162.854,130.305 163.349,130.677 163.651 C 131.253 164.119,131.303 164.117,131.015 163.638 C 130.785 163.257,130.825 163.168,131.138 163.362 C 131.392 163.519,131.603 163.952,131.606 164.324 C 131.611 164.865,131.682 164.890,131.962 164.447 C 132.238 164.013,132.370 164.076,132.582 164.744 C 132.730 165.211,132.739 165.774,132.602 165.996 C 132.465 166.218,132.515 166.400,132.712 166.400 C 132.910 166.400,133.277 166.850,133.527 167.400 C 133.794 167.987,134.317 168.400,134.791 168.400 C 135.243 168.400,135.600 168.665,135.600 169.000 C 135.600 169.330,135.800 169.600,136.043 169.600 C 136.320 169.600,136.389 169.988,136.227 170.634 C 136.059 171.304,136.114 171.577,136.384 171.410 C 136.613 171.268,136.800 171.354,136.800 171.600 C 136.800 171.846,136.980 171.936,137.200 171.800 C 137.420 171.664,137.600 171.931,137.600 172.394 C 137.600 172.857,137.825 173.206,138.100 173.170 C 139.305 173.014,139.647 173.222,139.409 173.970 C 139.261 174.438,139.393 174.870,139.744 175.070 C 140.063 175.252,140.386 175.760,140.462 176.200 C 140.538 176.640,141.095 177.497,141.700 178.103 C 142.305 178.710,142.800 179.385,142.800 179.603 C 142.800 179.822,142.980 180.000,143.200 180.000 C 143.420 180.000,143.600 180.289,143.600 180.643 C 143.600 181.044,143.821 181.201,144.187 181.060 C 144.510 180.936,144.898 181.035,145.049 181.279 C 145.215 181.548,145.141 181.611,144.862 181.438 C 144.572 181.259,144.400 181.450,144.400 181.953 C 144.400 182.393,144.608 182.881,144.862 183.038 C 145.167 183.227,145.214 183.146,145.000 182.800 C 144.786 182.454,144.833 182.373,145.138 182.562 C 145.392 182.719,145.600 183.117,145.600 183.447 C 145.600 183.777,145.768 183.944,145.972 183.817 C 146.177 183.691,146.460 183.773,146.600 184.000 C 146.740 184.227,147.021 184.311,147.223 184.186 C 147.425 184.061,147.491 184.220,147.368 184.539 C 147.246 184.858,147.338 185.238,147.573 185.383 C 147.808 185.528,148.000 185.919,148.000 186.252 C 148.000 187.145,149.047 188.034,149.770 187.756 C 150.244 187.574,150.400 187.773,150.400 188.557 C 150.400 189.131,150.580 189.600,150.800 189.600 C 151.020 189.600,151.200 189.876,151.200 190.213 C 151.200 190.549,151.450 190.921,151.755 191.038 C 152.060 191.155,152.416 191.780,152.545 192.426 C 152.717 193.284,153.009 193.600,153.633 193.600 C 154.207 193.600,154.414 193.786,154.267 194.171 C 154.006 194.849,154.987 195.779,155.577 195.414 C 155.847 195.248,155.877 195.462,155.665 196.035 C 155.334 196.929,156.578 198.800,157.503 198.800 C 157.728 198.800,158.030 199.266,158.173 199.835 C 158.398 200.732,158.519 200.800,159.074 200.338 C 159.637 199.871,159.681 199.914,159.437 200.685 C 159.125 201.668,160.163 203.600,161.003 203.600 C 161.283 203.600,161.635 204.086,161.784 204.679 C 161.997 205.525,162.134 205.633,162.421 205.179 C 162.698 204.742,162.789 204.857,162.794 205.646 C 162.801 206.821,164.266 208.930,164.832 208.580 C 165.034 208.455,165.200 208.723,165.200 209.176 C 165.200 209.629,165.389 210.000,165.621 210.000 C 165.852 210.000,166.230 210.540,166.460 211.200 C 166.690 211.860,167.131 212.400,167.439 212.400 C 168.300 212.400,168.104 213.479,167.200 213.716 C 166.721 213.841,166.400 214.262,166.400 214.763 C 166.400 215.223,166.211 215.600,165.981 215.600 C 165.193 215.600,163.640 217.638,163.900 218.332 C 164.125 218.934,164.077 218.941,163.409 218.400 C 162.715 217.839,162.684 217.869,162.932 218.862 C 163.161 219.782,163.090 219.896,162.398 219.715 C 161.781 219.554,161.600 219.704,161.600 220.377 C 161.600 220.856,161.420 221.136,161.200 221.000 C 160.980 220.864,160.800 220.943,160.800 221.176 C 160.800 221.409,160.510 221.600,160.157 221.600 C 159.670 221.600,159.574 221.844,159.764 222.600 C 159.982 223.468,159.883 223.600,159.008 223.600 C 158.379 223.600,158.000 223.825,158.000 224.200 C 158.000 224.530,157.724 224.800,157.387 224.800 C 157.051 224.800,156.662 225.115,156.523 225.500 C 156.385 225.885,155.937 226.526,155.527 226.924 C 155.117 227.322,154.904 227.845,155.053 228.086 C 155.215 228.348,155.139 228.409,154.862 228.238 C 154.608 228.081,154.400 228.124,154.400 228.333 C 154.400 228.542,153.950 228.826,153.400 228.964 C 152.742 229.129,152.400 229.494,152.400 230.031 C 152.400 230.480,152.220 230.736,152.000 230.600 C 151.780 230.464,151.600 230.633,151.600 230.976 C 151.600 231.319,151.336 231.600,151.013 231.600 C 150.668 231.600,150.516 231.836,150.644 232.171 C 150.804 232.588,150.639 232.683,150.032 232.524 C 149.443 232.370,149.200 232.495,149.200 232.953 C 149.200 233.309,148.998 233.600,148.751 233.600 C 148.459 233.600,148.493 233.835,148.851 234.275 C 149.332 234.866,149.313 234.917,148.700 234.687 C 148.219 234.507,148.000 234.622,148.000 235.055 C 148.000 235.451,147.777 235.600,147.400 235.455 C 146.870 235.252,146.591 236.145,146.725 237.617 C 146.736 237.736,146.381 237.861,145.937 237.895 C 144.985 237.966,142.800 240.127,142.800 240.996 C 142.800 241.344,142.442 241.600,141.957 241.600 C 141.372 241.600,141.185 241.784,141.345 242.200 C 141.501 242.608,141.323 242.800,140.787 242.800 C 140.341 242.800,140.000 243.070,140.000 243.424 C 140.000 243.767,139.837 243.946,139.637 243.823 C 139.438 243.700,139.369 243.959,139.484 244.399 C 139.599 244.840,139.492 245.223,139.247 245.250 C 139.001 245.278,138.593 245.322,138.340 245.350 C 138.087 245.378,137.765 245.728,137.625 246.130 C 137.484 246.531,137.241 246.846,137.084 246.830 C 136.215 246.739,136.060 246.876,136.202 247.611 C 136.288 248.057,136.188 248.316,135.979 248.187 C 135.771 248.058,135.600 248.323,135.600 248.776 C 135.600 249.655,134.870 249.858,134.080 249.200 C 133.738 248.915,133.709 248.932,133.979 249.259 C 134.235 249.569,134.048 249.962,133.406 250.467 C 132.882 250.879,132.397 251.617,132.327 252.108 C 132.234 252.763,131.971 252.968,131.336 252.881 C 130.646 252.786,130.413 253.028,130.179 254.081 C 129.925 255.230,129.846 255.297,129.571 254.600 L 129.256 253.800 129.181 254.600 C 129.139 255.040,129.134 255.625,129.170 255.900 C 129.206 256.175,129.047 256.400,128.818 256.400 C 128.588 256.400,128.400 256.649,128.400 256.953 C 128.400 257.258,128.027 257.604,127.570 257.724 C 127.114 257.843,126.643 258.314,126.524 258.770 C 126.304 259.610,125.600 259.937,125.600 259.200 C 125.600 258.980,125.409 258.800,125.176 258.800 C 124.943 258.800,124.856 258.968,124.983 259.173 C 125.110 259.378,124.895 259.785,124.507 260.079 C 124.118 260.372,123.605 260.969,123.367 261.406 C 123.129 261.843,122.544 262.378,122.067 262.595 C 121.590 262.812,121.200 263.301,121.200 263.682 C 121.200 264.163,120.997 264.297,120.536 264.120 C 120.017 263.921,119.918 264.045,120.085 264.682 C 120.259 265.347,120.148 265.459,119.487 265.286 C 118.915 265.137,118.764 265.219,118.978 265.564 C 119.171 265.876,118.976 266.133,118.440 266.274 C 117.978 266.394,117.600 266.716,117.600 266.987 C 117.600 267.259,117.093 268.012,116.473 268.660 C 115.854 269.309,115.419 270.056,115.507 270.320 C 115.595 270.584,115.477 270.800,115.246 270.800 C 115.014 270.800,114.926 271.115,115.050 271.500 C 115.229 272.055,115.193 272.083,114.874 271.635 C 114.533 271.155,114.372 271.170,113.808 271.735 C 113.442 272.101,113.291 272.405,113.471 272.412 C 113.652 272.419,113.492 272.604,113.117 272.823 C 112.737 273.044,112.534 273.485,112.661 273.815 C 112.820 274.228,112.702 274.337,112.275 274.174 C 111.896 274.028,111.489 274.260,111.211 274.780 C 110.963 275.243,110.589 275.517,110.380 275.388 C 110.171 275.258,110.000 275.543,110.000 276.019 C 110.000 276.625,109.820 276.816,109.400 276.655 C 109.070 276.529,108.800 276.599,108.800 276.813 C 108.800 277.322,107.312 278.800,106.800 278.800 C 106.580 278.800,106.400 278.980,106.400 279.200 C 106.400 279.756,104.677 281.426,104.251 281.284 C 104.059 281.220,104.008 281.445,104.138 281.784 C 104.289 282.177,104.148 282.400,103.750 282.400 C 103.406 282.400,103.031 282.758,102.917 283.196 C 102.803 283.633,102.576 283.909,102.413 283.808 C 102.250 283.707,101.915 284.069,101.667 284.613 C 101.420 285.156,100.943 285.600,100.609 285.600 C 100.274 285.600,100.000 285.870,100.000 286.200 C 100.000 286.530,100.202 286.800,100.449 286.800 C 100.761 286.800,100.747 286.982,100.404 287.396 C 100.132 287.723,99.750 287.893,99.555 287.772 C 99.360 287.651,99.200 287.749,99.200 287.989 C 99.200 288.229,98.795 288.589,98.300 288.788 C 97.805 288.987,97.625 289.161,97.900 289.175 C 98.744 289.217,98.454 289.936,97.538 290.072 C 96.979 290.155,96.624 290.543,96.529 291.176 C 96.344 292.404,96.273 292.469,95.026 292.541 C 94.462 292.573,94.000 292.806,94.000 293.057 C 94.000 293.309,93.730 293.618,93.400 293.745 C 93.070 293.871,92.800 294.341,92.800 294.787 C 92.800 295.243,92.536 295.600,92.200 295.600 C 91.870 295.600,91.600 295.780,91.600 296.000 C 91.600 296.220,91.330 296.400,91.000 296.400 C 90.670 296.400,90.400 296.670,90.400 297.000 C 90.400 297.330,90.109 297.600,89.753 297.600 C 89.316 297.600,89.171 297.845,89.305 298.358 C 89.442 298.881,89.209 299.250,88.552 299.549 C 88.028 299.788,87.600 300.186,87.600 300.434 C 87.600 300.682,87.339 300.786,87.020 300.663 C 86.638 300.517,86.515 300.633,86.657 301.004 C 86.810 301.404,86.630 301.521,86.037 301.407 C 85.416 301.288,85.200 301.450,85.200 302.036 C 85.200 302.470,84.915 302.934,84.568 303.068 C 84.191 303.212,84.014 303.609,84.129 304.048 C 84.284 304.645,84.188 304.715,83.627 304.415 C 82.920 304.036,82.820 304.234,82.771 306.115 C 82.759 306.579,82.340 306.912,81.576 307.065 C 80.929 307.194,80.400 307.548,80.400 307.850 C 80.400 308.153,80.130 308.400,79.800 308.400 C 79.467 308.400,79.200 308.756,79.200 309.200 C 79.200 310.050,77.890 311.600,77.171 311.600 C 76.577 311.600,75.601 312.633,75.593 313.271 C 75.585 313.918,73.867 315.600,73.215 315.600 C 72.617 315.600,71.600 316.601,71.600 317.191 C 71.600 317.437,71.177 318.035,70.661 318.519 C 70.144 319.004,69.619 319.670,69.492 320.000 C 69.352 320.368,69.251 320.406,69.232 320.100 C 69.214 319.825,69.000 319.600,68.757 319.600 C 68.480 319.600,68.411 319.988,68.573 320.634 C 68.715 321.202,68.681 321.574,68.497 321.460 C 68.313 321.346,67.900 321.418,67.581 321.620 C 67.182 321.872,67.157 321.990,67.500 321.994 C 67.775 321.997,68.000 322.174,68.000 322.387 C 68.000 322.601,67.701 322.660,67.336 322.520 C 66.818 322.321,66.718 322.445,66.884 323.080 C 67.006 323.544,66.904 323.890,66.649 323.884 C 65.077 323.849,64.606 324.016,65.200 324.400 C 65.636 324.682,65.657 324.789,65.276 324.794 C 64.988 324.797,64.863 324.978,64.997 325.195 C 65.136 325.420,64.980 325.491,64.638 325.359 C 64.027 325.125,63.603 326.178,63.692 327.705 C 63.757 328.823,90.515 328.584,90.731 327.464 C 90.875 326.714,92.387 324.953,92.416 325.500 C 92.425 325.665,92.701 325.305,93.029 324.700 C 93.368 324.075,93.965 323.600,94.413 323.600 C 94.933 323.600,95.200 323.329,95.200 322.800 C 95.200 322.356,95.467 322.000,95.800 322.000 C 96.175 322.000,96.400 321.621,96.400 320.992 C 96.400 320.132,96.538 320.020,97.349 320.223 C 98.127 320.418,98.344 320.276,98.557 319.431 C 98.699 318.864,99.062 318.400,99.363 318.400 C 99.665 318.400,99.886 318.085,99.856 317.700 C 99.825 317.315,100.025 317.045,100.300 317.100 C 100.906 317.221,100.953 316.713,100.387 316.147 C 100.104 315.864,100.374 315.794,101.251 315.922 C 102.309 316.077,102.485 315.997,102.276 315.455 C 102.111 315.025,102.235 314.800,102.636 314.800 C 102.972 314.800,103.136 314.620,103.000 314.400 C 102.864 314.180,102.954 314.000,103.200 314.000 C 103.446 314.000,103.517 313.789,103.358 313.532 C 103.164 313.217,103.287 313.148,103.734 313.319 C 104.223 313.507,104.400 313.355,104.400 312.745 C 104.400 312.171,104.585 311.986,105.000 312.145 C 105.372 312.287,105.600 312.143,105.600 311.764 C 105.600 311.428,105.768 311.256,105.973 311.383 C 106.178 311.510,106.403 311.116,106.473 310.507 C 106.543 309.898,106.804 309.438,107.053 309.484 C 107.302 309.531,107.482 309.261,107.453 308.884 C 107.424 308.508,107.625 308.245,107.900 308.300 C 108.175 308.355,108.403 308.085,108.406 307.700 C 108.411 307.102,108.469 307.087,108.800 307.600 C 109.129 308.109,109.189 308.090,109.194 307.476 C 109.197 307.078,109.380 306.864,109.600 307.000 C 109.820 307.136,110.000 307.063,110.000 306.837 C 110.000 306.612,110.544 305.871,111.209 305.191 C 111.874 304.510,112.314 303.784,112.186 303.577 C 112.058 303.370,112.344 303.200,112.823 303.200 C 113.496 303.200,113.646 303.019,113.484 302.400 C 113.260 301.542,114.210 301.229,114.490 302.069 C 114.576 302.327,114.882 301.967,115.171 301.269 C 115.566 300.316,115.959 299.992,116.749 299.968 C 117.327 299.951,117.575 299.846,117.300 299.735 C 117.025 299.624,116.800 299.178,116.800 298.743 C 116.800 298.308,116.983 298.066,117.207 298.204 C 117.430 298.342,117.520 298.606,117.406 298.790 C 117.292 298.975,117.559 299.031,117.999 298.916 C 118.700 298.733,119.038 297.826,118.837 296.670 C 118.806 296.489,118.966 296.455,119.193 296.596 C 119.420 296.736,119.714 296.569,119.846 296.225 C 119.978 295.881,120.357 295.600,120.689 295.600 C 121.087 295.600,121.225 295.339,121.093 294.835 C 120.955 294.306,121.139 294.005,121.687 293.861 C 122.123 293.747,122.363 293.464,122.219 293.232 C 122.054 292.963,122.221 292.908,122.679 293.079 C 123.316 293.318,123.335 293.270,122.843 292.666 C 122.357 292.068,122.370 292.013,122.943 292.234 C 123.384 292.403,123.600 292.274,123.600 291.843 C 123.600 291.489,123.870 291.200,124.200 291.200 C 124.530 291.200,124.800 291.020,124.800 290.800 C 124.800 290.158,126.339 288.800,127.067 288.800 C 127.433 288.800,127.615 288.682,127.470 288.537 C 127.077 288.144,128.024 287.168,128.508 287.467 C 128.771 287.629,128.843 287.409,128.704 286.876 C 128.582 286.409,128.599 286.043,128.741 286.061 C 129.550 286.166,130.000 285.930,130.000 285.400 C 130.000 285.070,130.270 284.800,130.600 284.800 C 130.980 284.800,131.212 284.397,131.232 283.700 C 131.249 283.095,131.354 282.825,131.465 283.100 C 131.746 283.796,132.400 283.727,132.400 283.000 C 132.400 282.670,132.584 282.400,132.809 282.400 C 133.033 282.400,133.420 281.956,133.667 281.413 C 133.915 280.869,134.271 280.520,134.458 280.636 C 134.646 280.752,134.800 280.367,134.800 279.781 C 134.800 279.040,134.968 278.779,135.350 278.926 C 135.691 279.056,135.881 278.882,135.850 278.468 C 135.823 278.101,136.070 277.800,136.400 277.800 C 136.730 277.800,137.096 277.350,137.213 276.800 C 137.362 276.099,137.648 275.839,138.167 275.930 C 138.693 276.022,138.841 275.883,138.675 275.450 C 138.514 275.033,138.623 274.911,139.020 275.063 C 139.339 275.186,139.600 275.097,139.600 274.867 C 139.600 274.638,140.132 273.867,140.781 273.156 C 141.431 272.445,141.853 271.686,141.719 271.470 C 141.586 271.253,141.672 271.197,141.911 271.345 C 142.150 271.493,142.583 271.284,142.873 270.880 C 143.163 270.477,143.734 270.022,144.142 269.870 C 144.713 269.657,144.824 269.349,144.622 268.544 C 144.392 267.630,144.464 267.523,145.179 267.710 C 145.631 267.829,146.000 267.743,146.000 267.520 C 146.000 267.297,146.279 267.222,146.621 267.353 C 146.998 267.497,147.139 267.425,146.981 267.168 C 146.837 266.936,147.070 266.654,147.498 266.542 C 148.043 266.400,148.228 266.077,148.114 265.469 C 147.990 264.806,148.242 264.473,149.176 264.066 C 149.930 263.738,150.400 263.239,150.400 262.766 C 150.400 262.064,150.843 261.803,151.751 261.970 C 151.944 262.005,152.006 261.666,151.888 261.216 C 151.771 260.767,151.838 260.500,152.037 260.623 C 152.237 260.746,152.400 260.577,152.400 260.246 C 152.400 259.552,153.968 258.333,154.465 258.640 C 154.649 258.754,154.800 258.297,154.800 257.624 C 154.800 256.723,154.985 256.402,155.500 256.406 C 156.098 256.411,156.113 256.469,155.600 256.800 C 155.270 257.013,155.180 257.185,155.400 257.181 C 156.015 257.171,157.200 256.167,157.200 255.656 C 157.200 255.405,157.470 255.200,157.800 255.200 C 158.173 255.200,158.400 254.822,158.400 254.200 C 158.400 253.285,158.918 252.966,160.100 253.153 C 160.265 253.179,160.400 252.970,160.400 252.689 C 160.400 252.408,160.760 251.870,161.200 251.493 C 161.640 251.116,162.000 250.536,162.000 250.204 C 162.000 249.872,162.264 249.600,162.587 249.600 C 162.947 249.600,163.085 249.366,162.943 248.995 C 162.774 248.556,162.894 248.461,163.379 248.647 C 163.848 248.827,164.114 248.649,164.271 248.052 C 164.401 247.554,164.814 247.200,165.264 247.200 C 165.776 247.200,165.996 246.965,165.918 246.500 C 165.837 246.023,166.023 245.837,166.500 245.918 C 166.977 245.998,167.200 245.774,167.200 245.218 C 167.200 244.768,167.447 244.400,167.750 244.400 C 168.053 244.400,168.403 243.887,168.528 243.260 C 168.656 242.619,169.246 241.804,169.878 241.396 C 171.055 240.635,172.736 238.986,172.841 238.490 C 173.046 237.514,173.398 237.200,174.286 237.200 C 175.010 237.200,175.222 237.035,175.055 236.600 C 174.906 236.211,175.067 235.998,175.513 235.994 C 176.103 235.989,176.115 235.933,175.600 235.600 C 175.270 235.387,175.135 235.187,175.300 235.156 C 175.465 235.125,175.780 235.055,176.000 235.000 C 176.220 234.945,176.580 234.878,176.800 234.850 C 177.020 234.822,177.197 234.485,177.194 234.100 C 177.189 233.507,177.130 233.491,176.812 233.995 C 176.514 234.465,176.449 234.407,176.501 233.715 C 176.552 233.042,176.688 232.941,177.091 233.276 C 177.713 233.791,179.344 232.557,178.929 231.885 C 178.788 231.657,178.872 231.597,179.119 231.750 C 179.372 231.906,179.818 231.545,180.156 230.912 L 180.751 229.800 181.214 231.100 C 181.469 231.814,181.842 232.298,182.042 232.174 C 182.243 232.050,182.540 232.309,182.703 232.750 C 182.988 233.521,183.110 233.600,184.000 233.600 C 184.220 233.600,184.400 233.848,184.400 234.151 C 184.400 234.454,184.651 234.911,184.959 235.166 C 185.266 235.421,185.425 235.983,185.312 236.415 C 185.171 236.956,185.308 237.200,185.753 237.200 C 186.109 237.200,186.400 237.470,186.400 237.800 C 186.400 238.130,186.670 238.400,187.000 238.400 C 187.330 238.400,187.600 238.670,187.600 239.000 C 187.600 239.330,187.780 239.600,188.000 239.600 C 188.220 239.600,188.355 239.825,188.300 240.100 C 188.245 240.375,188.407 240.561,188.659 240.514 C 188.931 240.463,189.034 240.748,188.912 241.214 C 188.771 241.756,188.907 242.000,189.353 242.000 C 189.905 242.000,190.190 242.669,190.061 243.660 C 190.042 243.803,190.478 244.033,191.030 244.172 C 191.581 244.310,191.936 244.579,191.819 244.770 C 191.701 244.960,191.860 245.214,192.171 245.334 C 192.534 245.473,192.654 245.871,192.506 246.438 C 192.354 247.021,192.423 247.233,192.709 247.056 C 192.949 246.908,193.260 246.973,193.400 247.200 C 193.540 247.427,193.821 247.511,194.023 247.386 C 194.225 247.261,194.284 247.438,194.153 247.779 C 193.998 248.182,194.141 248.400,194.557 248.400 C 194.983 248.400,195.200 248.752,195.200 249.443 C 195.200 250.178,195.367 250.421,195.767 250.268 C 196.370 250.037,196.955 251.025,196.578 251.636 C 196.454 251.836,196.718 252.000,197.164 252.000 C 197.720 252.000,197.903 252.188,197.745 252.600 C 197.603 252.969,197.745 253.200,198.114 253.200 C 198.444 253.200,198.827 253.653,198.966 254.206 C 199.245 255.319,200.404 256.845,200.788 256.607 C 200.923 256.524,201.063 256.844,201.099 257.320 C 201.135 257.795,201.487 258.426,201.882 258.721 C 202.277 259.015,202.555 259.424,202.500 259.628 C 202.445 259.833,202.617 259.955,202.882 259.900 C 203.342 259.804,203.438 260.022,203.550 261.424 C 203.577 261.767,203.782 261.935,204.003 261.798 C 204.442 261.527,205.228 263.194,204.913 263.727 C 204.807 263.906,205.044 263.996,205.441 263.927 C 205.938 263.839,206.292 264.171,206.581 264.999 C 207.023 266.262,208.672 267.966,209.475 267.987 C 209.736 267.994,210.006 268.571,210.075 269.269 C 210.145 269.977,210.465 270.610,210.800 270.700 C 211.333 270.843,211.333 270.814,210.800 270.437 C 210.282 270.070,210.296 270.011,210.900 270.006 C 211.503 270.001,211.803 270.671,211.652 271.686 C 211.629 271.843,211.864 271.873,212.176 271.754 C 212.586 271.596,212.682 271.764,212.525 272.364 C 212.385 272.901,212.535 273.277,212.955 273.438 C 213.310 273.574,213.600 274.030,213.600 274.451 C 213.600 274.880,214.040 275.418,214.600 275.673 C 215.150 275.923,215.600 276.370,215.600 276.664 C 215.600 277.314,217.025 278.800,217.649 278.800 C 217.959 278.800,217.944 278.985,217.600 279.400 C 217.190 279.894,217.224 280.000,217.794 280.000 C 218.244 280.000,218.405 280.209,218.255 280.600 C 218.115 280.965,218.255 281.200,218.613 281.200 C 218.936 281.200,219.200 281.366,219.200 281.569 C 219.200 281.772,219.740 282.478,220.400 283.138 C 221.060 283.798,221.600 284.720,221.600 285.187 C 221.600 285.773,221.816 285.999,222.300 285.918 C 222.777 285.837,222.963 286.023,222.882 286.500 C 222.815 286.904,223.015 287.200,223.357 287.200 C 223.682 287.200,224.176 287.830,224.454 288.600 C 224.733 289.370,225.105 290.000,225.280 290.000 C 225.456 290.000,225.600 290.291,225.600 290.647 C 225.600 291.082,225.845 291.229,226.349 291.097 C 226.916 290.949,227.053 291.076,226.911 291.620 C 226.797 292.055,227.114 292.678,227.716 293.201 C 228.354 293.756,228.636 294.339,228.507 294.832 C 228.314 295.570,228.692 295.787,229.900 295.630 C 230.175 295.594,230.400 295.933,230.400 296.382 C 230.400 296.832,230.578 297.200,230.795 297.200 C 231.649 297.200,232.697 298.506,232.487 299.309 C 232.344 299.857,232.424 300.032,232.732 299.842 C 233.040 299.652,233.103 299.786,232.926 300.249 C 232.723 300.778,232.818 300.879,233.331 300.682 C 233.991 300.429,234.164 300.754,234.031 302.000 C 233.981 302.463,234.046 302.483,234.315 302.086 C 234.509 301.801,234.965 301.689,235.342 301.833 C 235.905 302.049,235.933 302.201,235.510 302.722 C 235.081 303.250,235.104 303.311,235.655 303.105 C 236.152 302.919,236.261 303.045,236.108 303.630 C 235.990 304.083,236.110 304.400,236.400 304.400 C 236.688 304.400,236.810 304.717,236.695 305.160 C 236.539 305.756,236.688 305.898,237.395 305.820 C 238.093 305.744,238.250 305.887,238.100 306.461 C 237.974 306.943,238.121 307.200,238.522 307.200 C 238.880 307.200,239.247 307.701,239.400 308.400 C 239.545 309.060,239.829 309.600,240.032 309.600 C 240.234 309.600,240.400 309.864,240.400 310.187 C 240.400 310.531,240.636 310.684,240.968 310.557 C 241.341 310.414,241.585 310.659,241.678 311.269 C 241.755 311.781,242.040 312.155,242.309 312.100 C 242.579 312.045,242.800 312.283,242.800 312.629 C 242.800 312.974,243.070 313.527,243.400 313.857 C 243.730 314.187,244.000 314.804,244.000 315.229 C 244.000 315.655,244.274 316.000,244.613 316.000 C 244.949 316.000,245.333 316.280,245.464 316.623 C 245.596 316.966,245.941 317.155,246.231 317.043 C 246.550 316.921,246.679 317.050,246.557 317.369 C 246.445 317.659,246.646 318.009,247.002 318.146 C 247.359 318.282,247.539 318.576,247.402 318.797 C 247.265 319.019,247.364 319.200,247.623 319.200 C 247.896 319.200,248.006 319.535,247.884 320.000 C 247.718 320.636,247.872 320.800,248.637 320.800 C 249.660 320.800,249.935 321.376,249.100 321.769 C 248.825 321.898,249.070 321.943,249.645 321.868 C 250.494 321.757,250.654 321.870,250.498 322.468 C 250.392 322.873,250.505 323.445,250.749 323.739 C 250.993 324.033,251.060 324.431,250.897 324.624 C 250.733 324.816,250.908 324.739,251.284 324.451 C 251.883 323.994,251.948 324.033,251.807 324.764 C 251.704 325.300,251.853 325.600,252.223 325.600 C 252.572 325.600,252.800 325.995,252.800 326.600 C 252.800 327.343,253.012 327.600,253.624 327.600 C 254.077 327.600,254.336 327.780,254.200 328.000 C 253.813 328.626,336.094 328.546,336.720 327.920 C 337.397 327.243,337.317 325.331,336.600 325.055 C 336.270 324.929,335.997 324.504,335.994 324.113 C 335.989 323.506,335.930 323.489,335.600 324.000 C 335.244 324.551,334.966 323.506,335.150 322.307 C 335.175 322.146,334.746 321.901,334.198 321.764 C 333.315 321.542,332.978 320.923,333.164 319.866 C 333.196 319.682,332.858 319.436,332.411 319.319 C 331.965 319.202,331.579 318.903,331.554 318.653 C 331.528 318.404,331.483 317.930,331.454 317.600 C 331.424 317.270,331.162 317.049,330.870 317.110 C 330.579 317.170,330.449 317.044,330.581 316.830 C 330.822 316.441,329.268 315.354,328.700 315.515 C 328.535 315.562,328.400 315.165,328.400 314.633 C 328.400 314.102,328.212 313.604,327.982 313.527 C 327.752 313.451,327.534 312.986,327.497 312.494 C 327.449 311.853,327.175 311.600,326.527 311.600 C 325.851 311.600,325.689 311.434,325.880 310.936 C 326.084 310.405,325.956 310.318,325.243 310.505 C 324.467 310.708,324.366 310.599,324.471 309.669 C 324.540 309.058,324.404 308.634,324.155 308.680 C 323.897 308.728,323.795 308.360,323.906 307.780 C 324.066 306.942,323.942 306.800,323.047 306.800 C 322.084 306.800,321.763 306.302,321.953 305.100 C 321.979 304.935,321.730 304.800,321.400 304.800 C 321.070 304.800,320.800 304.519,320.800 304.176 C 320.800 303.833,320.622 303.663,320.405 303.797 C 320.187 303.932,320.105 303.791,320.223 303.485 C 320.469 302.843,319.417 301.819,318.863 302.161 C 318.658 302.288,318.498 302.168,318.508 301.896 C 318.555 300.590,318.356 300.042,317.900 300.217 C 317.615 300.326,317.154 299.847,316.829 299.105 C 316.035 297.290,314.745 295.600,314.153 295.600 C 313.879 295.600,313.594 295.195,313.518 294.700 C 313.443 294.205,313.160 293.845,312.891 293.900 C 312.621 293.955,312.400 293.636,312.400 293.191 C 312.400 292.717,311.987 292.194,311.400 291.927 C 310.850 291.677,310.400 291.140,310.400 290.736 C 310.400 290.331,310.220 290.000,310.000 290.000 C 309.780 290.000,309.600 289.724,309.600 289.387 C 309.600 289.051,309.330 288.671,309.000 288.545 C 308.670 288.418,308.400 287.884,308.400 287.357 C 308.400 286.773,308.166 286.400,307.800 286.400 C 307.470 286.400,307.200 286.155,307.200 285.856 C 307.200 285.557,306.761 284.982,306.224 284.579 C 305.687 284.176,305.326 283.720,305.422 283.565 C 305.517 283.410,305.335 283.184,305.017 283.062 C 304.688 282.936,304.507 282.485,304.596 282.020 C 304.712 281.421,304.545 281.200,303.977 281.200 C 303.550 281.200,303.245 280.979,303.300 280.709 C 303.355 280.440,302.981 280.155,302.469 280.078 C 301.859 279.985,301.614 279.741,301.757 279.368 C 301.959 278.841,301.515 278.607,300.632 278.775 C 300.430 278.814,300.512 278.548,300.813 278.184 C 301.284 277.616,301.266 277.469,300.681 277.141 C 300.306 276.932,300.000 276.409,300.000 275.980 C 300.000 275.551,299.742 275.200,299.427 275.200 C 299.112 275.200,298.741 274.844,298.603 274.408 C 298.464 273.973,298.141 273.658,297.885 273.708 C 297.629 273.759,297.357 273.395,297.282 272.899 C 297.206 272.404,296.803 271.816,296.387 271.593 C 295.947 271.357,295.725 270.939,295.858 270.594 C 295.998 270.227,295.850 270.000,295.470 270.000 C 295.131 270.000,294.740 269.640,294.600 269.200 C 294.460 268.760,294.178 268.400,293.973 268.400 C 293.768 268.400,293.600 267.950,293.600 267.400 C 293.600 266.850,293.406 266.400,293.169 266.400 C 292.437 266.400,290.569 264.269,290.089 262.888 C 289.614 261.521,288.639 260.295,288.298 260.636 C 288.189 260.744,287.736 260.097,287.290 259.196 C 286.815 258.235,286.394 257.774,286.272 258.080 C 286.157 258.366,286.049 258.178,286.032 257.663 C 286.012 257.090,285.700 256.647,285.228 256.523 C 284.768 256.403,284.543 256.094,284.670 255.761 C 284.813 255.389,284.601 255.200,284.043 255.200 C 283.579 255.200,283.178 255.020,283.150 254.800 C 283.123 254.580,283.053 254.265,282.996 254.100 C 282.939 253.935,282.761 253.395,282.600 252.900 C 282.438 252.405,282.058 252.000,281.753 252.000 C 281.449 252.000,281.200 251.640,281.200 251.200 C 281.200 250.756,280.933 250.400,280.600 250.400 C 280.270 250.400,280.000 250.119,280.000 249.776 C 280.000 249.433,279.830 249.258,279.622 249.387 C 279.414 249.515,279.076 249.014,278.871 248.273 C 278.320 246.276,277.206 245.101,276.447 245.714 C 276.030 246.052,275.931 246.058,276.125 245.736 C 276.482 245.141,276.029 243.935,275.558 244.226 C 275.361 244.348,275.178 244.167,275.150 243.824 C 275.123 243.481,275.055 243.020,275.000 242.800 C 274.945 242.580,274.877 242.220,274.850 242.000 C 274.822 241.780,274.530 241.600,274.200 241.600 C 273.870 241.600,273.600 241.330,273.600 241.000 C 273.600 240.670,273.285 240.397,272.900 240.394 C 272.302 240.389,272.287 240.331,272.800 240.000 C 273.438 239.588,272.950 239.404,271.673 239.576 C 271.264 239.632,271.244 239.464,271.587 238.824 C 271.947 238.151,271.910 238.000,271.387 238.000 C 270.949 238.000,270.819 237.769,270.978 237.270 C 271.246 236.426,269.632 235.349,268.660 235.722 C 267.961 235.990,267.603 235.232,267.593 233.467 C 267.585 231.968,265.975 230.209,264.874 230.497 C 264.281 230.652,264.185 230.484,264.323 229.542 C 264.427 228.836,264.310 228.400,264.018 228.400 C 263.726 228.400,263.644 228.091,263.803 227.590 C 263.945 227.144,263.912 226.806,263.730 226.837 C 262.789 227.001,261.972 226.743,262.030 226.300 C 262.195 225.027,261.973 224.712,261.035 224.891 C 260.239 225.043,260.097 224.934,260.226 224.267 C 260.311 223.823,260.221 223.266,260.025 223.030 C 259.670 222.603,259.600 222.366,259.600 221.600 C 259.600 221.380,259.409 221.200,259.176 221.200 C 258.943 221.200,258.888 221.425,259.053 221.700 C 259.257 222.040,259.137 222.024,258.677 221.651 C 257.944 221.057,257.749 220.598,258.400 221.000 C 258.620 221.136,258.800 221.057,258.800 220.824 C 258.800 220.435,258.247 220.235,257.500 220.353 C 257.335 220.379,257.200 219.860,257.200 219.200 C 257.200 218.540,257.040 218.000,256.843 218.000 C 256.647 218.000,256.374 217.553,256.237 217.006 C 255.984 215.996,254.445 215.278,253.623 215.786 C 253.390 215.930,253.185 215.902,253.168 215.724 C 253.150 215.546,253.098 214.886,253.052 214.257 C 253.007 213.628,252.662 212.888,252.285 212.613 C 251.908 212.337,251.600 211.894,251.600 211.627 C 251.600 211.028,250.607 210.000,250.029 210.000 C 249.793 210.000,249.600 209.640,249.600 209.200 C 249.600 208.756,249.333 208.400,249.000 208.400 C 248.654 208.400,248.400 208.039,248.400 207.547 C 248.400 206.766,246.611 204.802,245.900 204.800 C 245.735 204.800,245.600 204.440,245.600 204.000 C 245.600 203.560,245.463 203.200,245.296 203.200 C 245.129 203.200,244.756 202.821,244.467 202.358 C 244.031 201.661,244.032 201.563,244.470 201.787 C 244.762 201.936,244.460 201.596,243.800 201.031 C 243.140 200.466,242.465 200.003,242.300 200.002 C 242.135 200.001,242.000 199.544,242.000 198.987 C 242.000 198.431,241.730 197.871,241.400 197.745 C 241.070 197.618,240.800 197.323,240.800 197.089 C 240.800 196.348,239.548 195.245,238.962 195.470 C 238.554 195.627,238.400 195.346,238.400 194.443 C 238.400 193.690,238.212 193.239,237.922 193.300 C 237.659 193.355,237.321 192.860,237.170 192.200 C 237.018 191.540,236.873 191.149,236.847 191.331 C 236.751 192.005,234.800 189.253,234.800 188.442 C 234.800 187.979,234.549 187.600,234.243 187.600 C 233.936 187.600,233.582 187.330,233.455 187.000 C 233.329 186.670,232.969 186.400,232.655 186.400 C 232.342 186.400,231.982 186.130,231.855 185.800 C 231.729 185.470,231.349 185.200,231.013 185.200 C 230.266 185.200,230.169 183.360,230.900 183.065 C 231.175 182.954,231.016 182.849,230.547 182.832 C 230.046 182.813,229.607 182.469,229.484 182.000 C 229.369 181.560,229.009 181.200,228.684 181.200 C 227.896 181.200,227.562 179.295,228.232 178.625 C 228.523 178.334,228.665 177.998,228.547 177.880 C 228.428 177.762,228.683 177.477,229.113 177.246 C 229.543 177.016,230.023 176.957,230.181 177.114 C 230.338 177.271,230.430 177.220,230.386 177.000 C 230.162 175.891,230.466 175.200,231.176 175.200 C 231.603 175.200,232.081 174.992,232.238 174.738 C 232.431 174.427,232.341 174.384,231.962 174.607 C 231.631 174.802,231.688 174.608,232.101 174.136 C 232.486 173.696,232.698 173.231,232.571 173.104 C 232.444 172.977,232.716 172.754,233.176 172.608 C 233.635 172.462,233.910 172.177,233.785 171.976 C 233.660 171.774,233.838 171.716,234.179 171.847 C 234.530 171.982,234.800 171.875,234.800 171.600 C 234.800 171.325,235.070 171.218,235.421 171.353 C 235.762 171.484,235.939 171.425,235.814 171.223 C 235.689 171.021,235.770 170.742,235.993 170.604 C 236.217 170.466,236.397 170.138,236.394 169.876 C 236.390 169.583,236.225 169.631,235.963 170.000 C 235.586 170.533,235.557 170.533,235.703 170.000 C 235.793 169.670,236.036 169.400,236.243 169.400 C 236.450 169.400,237.053 168.995,237.585 168.500 C 238.116 168.005,238.766 167.600,239.029 167.600 C 239.469 167.600,240.144 166.201,240.043 165.500 C 240.019 165.335,240.174 165.200,240.387 165.200 C 240.601 165.200,240.663 164.909,240.527 164.553 C 240.312 163.993,240.401 163.972,241.200 164.400 C 241.992 164.824,242.088 164.805,241.881 164.267 C 241.727 163.866,241.914 163.554,242.400 163.400 C 242.817 163.267,243.267 162.817,243.400 162.400 C 243.554 161.914,243.866 161.727,244.267 161.881 C 244.799 162.085,244.822 161.989,244.420 161.237 C 244.008 160.467,244.041 160.369,244.673 160.476 C 245.233 160.572,245.385 160.362,245.334 159.567 C 245.292 158.911,245.475 158.533,245.834 158.533 C 246.145 158.533,246.400 158.696,246.400 158.895 C 246.400 159.094,246.670 158.987,247.000 158.657 C 247.330 158.327,247.600 157.930,247.600 157.775 C 247.600 157.620,248.076 157.084,248.657 156.585 C 249.259 156.068,249.619 155.428,249.494 155.100 C 249.326 154.663,249.529 154.571,250.337 154.717 C 250.921 154.823,251.280 154.780,251.133 154.621 C 250.987 154.463,251.218 153.982,251.648 153.552 C 252.078 153.122,252.323 152.599,252.194 152.390 C 252.064 152.180,252.236 152.116,252.579 152.247 C 253.047 152.427,253.200 152.216,253.200 151.396 C 253.200 150.494,253.341 150.344,254.022 150.522 C 254.633 150.681,254.940 150.485,255.216 149.758 C 255.421 149.220,255.871 148.671,256.217 148.538 C 256.563 148.405,256.758 148.068,256.651 147.788 C 256.543 147.508,256.821 147.183,257.268 147.066 C 257.715 146.949,257.963 146.664,257.819 146.432 C 257.655 146.166,257.813 146.107,258.245 146.273 C 258.707 146.450,258.838 146.385,258.645 146.073 C 258.458 145.770,258.574 145.692,258.979 145.847 C 259.374 145.999,259.600 145.862,259.600 145.471 C 259.600 145.134,259.825 144.619,260.100 144.329 C 260.375 144.038,260.600 143.530,260.600 143.200 C 260.600 142.837,260.893 142.650,261.340 142.727 C 261.784 142.803,261.975 142.683,261.817 142.427 C 261.671 142.192,261.833 142.000,262.176 142.000 C 262.519 142.000,262.800 141.730,262.800 141.400 C 262.800 141.070,262.935 140.845,263.100 140.900 C 263.265 140.955,263.463 140.820,263.539 140.600 C 263.982 139.332,264.541 138.800,265.432 138.800 C 266.053 138.800,266.390 138.600,266.318 138.275 C 266.253 137.986,266.721 137.266,267.358 136.675 C 267.996 136.084,268.311 135.600,268.058 135.600 C 267.099 135.600,267.652 134.847,268.700 134.727 C 269.319 134.655,269.756 134.381,269.700 134.100 C 269.608 133.641,270.112 133.420,270.930 133.563 C 271.111 133.594,271.158 133.456,271.034 133.255 C 270.910 133.055,271.066 132.677,271.381 132.416 C 271.695 132.155,271.863 131.708,271.753 131.422 C 271.611 131.052,271.848 130.958,272.577 131.098 C 273.607 131.295,273.814 130.920,273.631 129.200 C 273.580 128.722,273.640 128.708,273.925 129.130 C 274.384 129.807,275.754 128.579,275.443 127.769 C 275.316 127.436,275.451 127.322,275.810 127.459 C 276.422 127.694,277.600 126.742,277.600 126.012 C 277.600 125.314,279.289 123.208,279.664 123.439 C 279.849 123.554,280.000 123.367,280.000 123.024 C 280.000 122.681,280.281 122.400,280.624 122.400 C 280.967 122.400,281.149 122.240,281.028 122.045 C 280.756 121.605,281.775 120.708,282.137 121.070 C 282.282 121.215,282.400 121.033,282.400 120.667 C 282.400 120.300,282.664 120.000,282.987 120.000 C 283.345 120.000,283.485 119.765,283.345 119.400 C 283.200 119.023,283.349 118.800,283.743 118.800 C 284.089 118.800,284.573 118.425,284.818 117.966 C 285.064 117.507,285.370 117.236,285.498 117.364 C 285.626 117.492,286.058 117.058,286.459 116.399 C 286.860 115.739,287.354 115.200,287.557 115.200 C 287.759 115.200,287.836 114.795,287.728 114.300 C 287.587 113.658,287.639 113.553,287.910 113.934 C 288.207 114.352,288.476 114.229,289.156 113.365 C 289.831 112.507,289.910 112.184,289.512 111.913 C 289.170 111.680,289.331 111.603,290.000 111.682 C 290.827 111.780,290.984 111.644,290.905 110.900 C 290.852 110.405,290.998 110.000,291.228 110.000 C 291.459 110.000,291.536 110.180,291.400 110.400 C 291.264 110.620,291.331 110.800,291.549 110.800 C 291.959 110.800,292.627 109.254,292.469 108.670 C 292.420 108.489,292.577 108.462,292.817 108.611 C 293.065 108.764,293.351 108.510,293.478 108.024 C 293.601 107.553,293.893 107.231,294.126 107.309 C 294.785 107.528,296.009 106.090,295.746 105.405 C 295.577 104.963,295.691 104.860,296.155 105.038 C 296.514 105.176,296.800 105.085,296.800 104.834 C 296.800 104.586,297.250 104.178,297.800 103.927 C 298.398 103.655,298.802 103.135,298.806 102.636 C 298.811 102.003,298.897 101.934,299.162 102.353 C 299.630 103.092,300.124 101.636,299.771 100.556 C 299.578 99.963,299.612 99.924,299.932 100.374 C 300.271 100.852,300.446 100.860,300.974 100.421 C 301.494 99.990,301.517 99.781,301.105 99.276 C 300.668 98.741,300.703 98.716,301.372 99.085 C 302.252 99.572,303.200 98.914,303.200 97.816 C 303.200 97.463,303.515 97.065,303.900 96.930 C 304.785 96.620,307.200 94.371,307.200 93.857 C 307.200 93.645,307.758 92.973,308.441 92.364 C 309.205 91.681,309.566 91.068,309.379 90.766 C 309.201 90.478,309.243 90.379,309.480 90.526 C 309.876 90.771,311.433 89.504,312.984 87.676 C 313.511 87.054,313.624 86.661,313.328 86.476 C 313.028 86.287,313.089 86.014,313.520 85.613 C 314.080 85.094,314.123 85.103,313.897 85.693 C 313.710 86.179,313.806 86.296,314.253 86.124 C 314.625 85.981,314.785 85.586,314.661 85.113 C 314.518 84.565,314.622 84.400,315.018 84.551 C 315.325 84.669,315.831 84.512,316.141 84.202 C 316.451 83.892,316.839 83.765,317.003 83.919 C 317.168 84.074,317.223 83.634,317.126 82.941 C 316.998 82.022,317.091 81.737,317.472 81.883 C 317.759 81.993,318.098 81.811,318.226 81.478 C 318.353 81.145,318.892 80.763,319.423 80.630 C 319.997 80.486,320.486 79.997,320.630 79.423 C 320.763 78.892,321.145 78.353,321.478 78.226 C 321.826 78.092,321.982 77.731,321.846 77.376 C 321.702 77.001,321.775 76.861,322.031 77.019 C 322.498 77.308,323.640 75.988,323.341 75.504 C 323.237 75.337,323.433 75.200,323.776 75.200 C 324.586 75.200,324.624 72.967,323.829 72.171 C 323.184 71.526,320.000 71.384,320.000 72.000 C 320.000 72.251,317.459 72.400,313.176 72.400 C 309.423 72.400,306.448 72.246,306.565 72.057 C 306.682 71.868,306.017 71.733,305.089 71.757 C 304.160 71.781,303.430 71.980,303.468 72.200 C 303.509 72.444,302.531 72.548,300.968 72.466 C 299.228 72.375,298.400 72.479,298.400 72.789 C 298.400 73.041,298.239 73.148,298.042 73.026 C 297.845 72.904,297.569 73.104,297.428 73.470 C 297.288 73.836,297.404 74.283,297.686 74.462 C 298.414 74.924,297.696 74.879,296.815 74.408 C 296.213 74.086,296.038 74.193,295.834 75.008 C 295.697 75.554,295.395 76.000,295.164 76.000 C 294.617 76.000,293.828 76.809,293.480 77.725 C 293.329 78.124,293.024 78.339,292.803 78.202 C 292.581 78.065,292.399 78.188,292.399 78.476 C 292.398 78.764,291.859 79.360,291.200 79.800 C 290.541 80.240,290.002 80.825,290.001 81.100 C 290.001 81.375,289.736 81.600,289.413 81.600 C 289.055 81.600,288.915 81.835,289.055 82.200 C 289.205 82.590,289.045 82.800,288.600 82.800 C 288.155 82.800,287.995 83.010,288.145 83.400 C 288.271 83.730,288.184 84.000,287.951 84.000 C 287.717 84.000,287.048 84.388,286.463 84.863 C 285.792 85.407,285.670 85.628,286.133 85.462 C 286.625 85.286,286.811 85.364,286.698 85.700 C 286.605 85.975,286.140 86.178,285.665 86.152 C 285.065 86.119,284.800 86.337,284.800 86.865 C 284.800 87.283,284.520 87.733,284.177 87.864 C 283.834 87.996,283.649 88.350,283.764 88.652 C 283.899 89.002,283.690 89.200,283.187 89.200 C 282.754 89.200,282.400 89.470,282.400 89.800 C 282.400 90.130,282.130 90.400,281.800 90.400 C 281.457 90.400,281.200 90.760,281.200 91.243 C 281.200 91.855,281.023 92.018,280.552 91.837 C 280.063 91.649,279.952 91.774,280.101 92.343 C 280.253 92.926,280.127 93.054,279.549 92.903 C 279.137 92.795,278.800 92.908,278.800 93.153 C 278.800 93.702,277.345 95.200,276.813 95.200 C 276.599 95.200,276.529 95.470,276.655 95.800 C 276.801 96.180,276.650 96.400,276.243 96.400 C 275.889 96.400,275.597 96.625,275.594 96.900 C 275.580 97.993,274.840 98.655,274.362 98.000 C 273.992 97.492,273.959 97.507,274.150 98.100 C 274.274 98.485,274.190 98.800,273.964 98.800 C 273.738 98.800,273.664 98.980,273.800 99.200 C 273.936 99.420,273.857 99.600,273.624 99.600 C 273.391 99.600,273.200 99.378,273.200 99.107 C 273.200 98.836,272.730 99.306,272.155 100.152 C 271.580 100.998,270.770 102.030,270.355 102.445 C 269.940 102.860,269.600 103.470,269.600 103.800 C 269.600 104.130,269.420 104.400,269.200 104.400 C 268.980 104.400,268.800 104.681,268.800 105.024 C 268.800 105.367,268.620 105.536,268.400 105.400 C 268.180 105.264,268.000 105.433,268.000 105.776 C 268.000 106.133,267.658 106.400,267.200 106.400 C 266.667 106.400,266.400 106.667,266.400 107.200 C 266.400 107.640,266.207 108.000,265.971 108.000 C 265.418 108.000,264.400 109.018,264.400 109.571 C 264.400 109.807,264.040 110.000,263.600 110.000 C 263.071 110.000,262.800 110.267,262.800 110.787 C 262.800 111.318,262.607 111.501,262.209 111.348 C 261.832 111.203,261.448 111.496,261.145 112.161 C 260.885 112.732,260.520 113.200,260.336 113.200 C 260.151 113.200,260.045 113.425,260.100 113.700 C 260.155 113.975,259.981 114.157,259.714 114.105 C 259.434 114.050,259.325 114.261,259.457 114.605 C 259.617 115.022,259.419 115.200,258.794 115.200 C 258.046 115.200,257.983 115.297,258.400 115.800 C 258.744 116.215,258.759 116.400,258.449 116.400 C 258.202 116.400,257.640 116.760,257.200 117.200 C 256.760 117.640,256.108 118.000,255.751 118.000 C 255.215 118.000,255.190 118.106,255.608 118.609 C 256.028 119.116,256.007 119.178,255.484 118.977 C 254.799 118.714,253.398 120.864,253.916 121.383 C 254.072 121.539,254.001 121.607,253.758 121.533 C 253.515 121.460,252.590 122.145,251.702 123.056 C 250.813 123.967,249.752 124.906,249.343 125.144 C 248.934 125.381,248.825 125.581,249.100 125.588 C 250.080 125.612,249.581 126.400,248.586 126.400 C 247.677 126.400,247.619 126.488,248.026 127.248 C 248.288 127.739,248.310 127.991,248.076 127.847 C 247.854 127.710,247.371 127.713,247.003 127.854 C 246.469 128.059,246.441 128.180,246.866 128.450 C 247.268 128.704,247.216 128.789,246.656 128.794 C 245.828 128.801,244.018 130.347,244.007 131.057 C 244.003 131.309,243.719 131.622,243.375 131.754 C 243.024 131.889,242.876 132.199,243.037 132.460 C 243.234 132.778,243.062 132.857,242.494 132.709 C 241.861 132.543,241.607 132.718,241.424 133.446 C 241.293 133.971,241.008 134.400,240.792 134.400 C 240.577 134.400,240.400 134.670,240.400 135.000 C 240.400 135.330,240.130 135.600,239.800 135.600 C 239.470 135.600,239.200 135.941,239.200 136.357 C 239.200 136.774,238.930 137.218,238.600 137.345 C 238.270 137.471,238.000 138.052,238.000 138.634 C 238.000 139.550,237.864 139.667,236.994 139.501 C 236.190 139.347,235.940 139.498,235.751 140.254 C 235.620 140.774,235.242 141.200,234.911 141.200 C 234.479 141.200,234.356 141.517,234.474 142.319 C 234.615 143.285,234.498 143.446,233.619 143.493 C 232.709 143.542,232.686 143.510,233.400 143.202 C 234.101 142.899,234.111 142.853,233.487 142.828 C 233.096 142.813,232.672 143.069,232.546 143.398 C 232.419 143.726,232.127 143.878,231.895 143.735 C 231.632 143.572,231.553 143.778,231.686 144.284 C 231.836 144.861,231.711 145.080,231.249 145.047 C 230.862 145.019,230.549 145.363,230.472 145.900 C 230.379 146.558,230.077 146.800,229.347 146.800 C 228.542 146.800,228.374 146.974,228.475 147.700 C 228.577 148.432,228.432 148.577,227.700 148.475 C 226.968 148.373,226.800 148.541,226.800 149.375 C 226.800 150.019,226.577 150.400,226.200 150.400 C 225.870 150.400,225.600 150.591,225.600 150.824 C 225.600 151.057,225.401 151.124,225.157 150.974 C 224.852 150.785,224.808 150.995,225.015 151.647 C 225.283 152.492,225.245 152.535,224.658 152.048 C 223.823 151.355,223.797 151.740,224.623 152.566 C 225.188 153.130,225.136 153.167,224.074 152.955 C 223.008 152.742,222.886 152.830,222.724 153.939 C 222.625 154.609,222.692 155.067,222.872 154.955 C 223.053 154.844,223.200 154.463,223.200 154.110 C 223.200 153.756,223.320 153.587,223.467 153.734 C 224.105 154.372,222.708 155.979,221.893 155.543 C 221.420 155.290,221.201 155.278,221.347 155.515 C 221.481 155.732,221.233 156.003,220.796 156.117 C 220.321 156.241,220.000 156.663,220.000 157.163 C 220.000 157.623,219.826 158.000,219.613 158.000 C 219.399 158.000,219.329 158.270,219.455 158.600 C 219.629 159.052,219.386 159.200,218.466 159.200 C 217.796 159.200,217.119 159.408,216.962 159.662 C 216.769 159.974,216.859 160.016,217.238 159.793 C 217.547 159.611,217.305 159.967,216.700 160.585 C 216.095 161.203,215.600 161.955,215.600 162.255 C 215.600 163.007,214.940 162.941,214.639 162.158 C 214.504 161.806,214.153 161.609,213.859 161.722 C 213.477 161.868,213.378 161.650,213.510 160.957 C 213.717 159.876,211.951 157.736,211.224 158.185 C 210.984 158.334,210.901 158.202,211.028 157.872 C 211.148 157.559,210.966 157.196,210.623 157.064 C 210.280 156.933,210.000 156.560,210.000 156.236 C 210.000 155.912,209.792 155.519,209.538 155.362 C 209.233 155.173,209.186 155.254,209.400 155.600 C 209.614 155.946,209.567 156.027,209.262 155.838 C 209.008 155.681,208.800 155.126,208.800 154.605 C 208.800 154.084,208.530 153.387,208.200 153.057 C 207.870 152.727,207.597 152.219,207.594 151.929 C 207.589 151.538,207.486 151.557,207.200 152.000 C 206.955 152.379,206.810 152.421,206.806 152.113 C 206.802 151.822,206.530 151.729,206.131 151.882 C 205.619 152.078,205.523 151.977,205.724 151.454 C 205.887 151.028,205.762 150.684,205.393 150.542 C 205.058 150.413,204.800 149.811,204.800 149.157 C 204.800 148.376,204.597 148.000,204.176 148.000 C 203.807 148.000,203.669 148.188,203.838 148.462 C 204.006 148.733,203.949 148.816,203.699 148.661 C 203.466 148.517,203.369 148.039,203.484 147.600 C 203.627 147.055,203.496 146.800,203.074 146.800 C 202.734 146.800,202.398 146.395,202.328 145.900 C 202.251 145.363,201.938 145.019,201.551 145.047 C 201.106 145.079,200.964 144.860,201.098 144.347 C 201.237 143.816,201.078 143.598,200.547 143.594 C 199.918 143.589,199.895 143.526,200.400 143.200 C 200.800 142.942,200.833 142.810,200.500 142.806 C 200.225 142.803,200.000 142.629,200.000 142.421 C 200.000 141.498,198.175 140.070,197.487 140.455 C 197.030 140.711,196.800 140.699,196.800 140.420 C 196.800 140.189,196.986 140.000,197.214 140.000 C 197.498 140.000,197.499 139.759,197.217 139.232 C 196.918 138.674,196.942 138.410,197.303 138.264 C 197.600 138.144,197.522 138.050,197.110 138.032 C 196.731 138.014,196.137 137.451,195.789 136.780 C 195.310 135.853,194.971 135.619,194.379 135.807 C 193.939 135.946,193.600 135.868,193.600 135.627 C 193.600 135.392,193.825 135.195,194.100 135.188 C 194.375 135.181,194.281 134.990,193.892 134.763 C 193.502 134.536,193.296 134.168,193.434 133.945 C 193.747 133.439,192.347 132.084,191.725 132.292 C 191.215 132.462,190.623 131.010,190.972 130.446 C 191.094 130.247,190.566 129.583,189.797 128.970 C 189.029 128.358,188.400 127.627,188.400 127.348 C 188.400 127.068,188.102 126.673,187.738 126.469 C 187.329 126.240,187.175 125.843,187.334 125.429 C 187.475 125.060,187.433 124.856,187.239 124.976 C 187.046 125.095,186.574 124.700,186.192 124.097 C 185.809 123.493,185.053 122.605,184.511 122.122 C 183.969 121.639,183.632 121.072,183.761 120.864 C 184.062 120.376,182.874 119.910,182.264 120.275 C 181.948 120.465,181.957 120.360,182.290 119.947 C 182.678 119.468,182.678 119.230,182.290 118.812 C 181.896 118.386,181.917 118.348,182.400 118.618 C 182.917 118.907,182.924 118.860,182.451 118.277 C 182.149 117.905,181.545 117.600,181.108 117.600 C 180.567 117.600,180.388 117.409,180.545 117.000 C 180.689 116.623,180.541 116.400,180.145 116.400 C 179.774 116.400,179.601 116.173,179.726 115.850 C 179.856 115.509,179.682 115.319,179.268 115.350 C 178.792 115.386,178.636 115.138,178.727 114.487 C 178.819 113.829,178.310 113.041,176.902 111.662 C 175.828 110.611,175.021 109.538,175.107 109.279 C 175.322 108.634,174.127 107.470,173.798 108.003 C 173.372 108.693,172.861 108.053,173.102 107.132 C 173.288 106.422,173.198 106.315,172.608 106.542 C 171.970 106.786,171.951 106.739,172.443 106.132 C 172.866 105.612,172.873 105.523,172.473 105.763 C 172.119 105.977,171.874 105.805,171.726 105.240 C 171.606 104.778,171.326 104.400,171.104 104.400 C 170.877 104.400,170.919 104.139,171.200 103.800 C 171.606 103.311,171.584 103.200,171.078 103.200 C 170.238 103.200,169.129 102.039,169.459 101.505 C 169.631 101.226,169.421 101.154,168.862 101.300 C 168.378 101.426,168.100 101.362,168.229 101.153 C 168.622 100.518,167.447 98.400,166.702 98.400 C 166.316 98.400,166.000 98.209,166.000 97.976 C 166.000 97.743,165.837 97.654,165.637 97.777 C 165.438 97.900,165.376 97.612,165.500 97.137 C 165.685 96.433,165.584 96.311,164.953 96.476 C 164.326 96.640,164.189 96.480,164.231 95.639 C 164.301 94.245,164.009 93.547,163.490 93.868 C 163.223 94.033,163.159 93.883,163.319 93.466 C 163.504 92.984,163.358 92.800,162.787 92.800 C 162.354 92.800,162.000 92.536,162.000 92.213 C 162.000 91.855,161.765 91.715,161.400 91.855 C 160.981 92.016,160.800 91.825,160.800 91.223 C 160.800 90.009,159.689 88.000,159.017 88.000 C 158.707 88.000,158.336 87.627,158.191 87.171 C 158.045 86.713,157.696 86.431,157.409 86.541 C 157.062 86.674,156.956 86.490,157.088 85.984 C 157.197 85.569,157.000 84.943,156.652 84.595 C 156.303 84.246,155.851 83.663,155.648 83.299 C 155.321 82.715,155.191 82.706,154.539 83.219 C 153.852 83.759,153.841 83.748,154.381 83.061 C 154.895 82.408,154.883 82.279,154.281 81.941 C 153.906 81.732,153.600 81.294,153.600 80.968 C 153.600 80.642,153.331 80.272,153.002 80.146 C 152.674 80.019,152.504 79.755,152.626 79.558 C 152.748 79.361,152.657 79.200,152.424 79.200 C 152.191 79.200,152.045 78.979,152.100 78.709 C 152.155 78.440,151.777 78.155,151.260 78.076 C 150.496 77.961,150.355 77.746,150.511 76.933 C 150.666 76.121,150.566 75.968,149.981 76.121 C 149.460 76.257,149.325 76.140,149.495 75.697 C 149.624 75.360,149.452 74.881,149.112 74.632 C 148.772 74.384,148.425 73.825,148.341 73.390 C 148.191 72.610,147.710 72.600,109.945 72.600 C 78.641 72.600,71.738 72.505,71.902 72.078 C 72.058 71.672,71.422 71.573,69.051 71.636 C 67.373 71.680,66.000 71.871,66.000 72.058 M139.081 95.200 C 139.490 95.200,139.626 95.458,139.491 95.974 C 139.371 96.433,139.525 96.839,139.870 96.971 C 140.189 97.094,140.345 97.365,140.217 97.573 C 139.985 97.948,141.912 100.000,142.496 100.000 C 142.663 100.000,142.800 100.450,142.800 101.000 C 142.800 101.550,142.960 102.000,143.157 102.000 C 143.353 102.000,143.630 102.466,143.773 103.036 C 143.952 103.746,144.224 104.000,144.638 103.841 C 145.020 103.694,145.140 103.774,144.964 104.058 C 144.775 104.364,145.061 104.452,145.862 104.335 C 146.944 104.176,147.025 104.249,146.879 105.242 C 146.779 105.924,146.993 106.597,147.460 107.073 C 147.867 107.486,148.455 108.314,148.768 108.912 C 149.080 109.510,149.575 110.000,149.868 110.000 C 150.160 110.000,150.400 110.360,150.400 110.800 C 150.400 111.244,150.667 111.600,151.000 111.600 C 151.346 111.600,151.600 111.962,151.600 112.454 C 151.600 113.295,153.279 115.200,154.021 115.200 C 154.229 115.200,154.400 115.560,154.400 116.000 C 154.400 116.440,154.537 116.800,154.704 116.800 C 154.871 116.800,155.244 117.179,155.533 117.642 C 155.969 118.339,155.968 118.435,155.530 118.198 C 155.238 118.041,155.540 118.375,156.200 118.942 C 156.860 119.508,157.535 119.978,157.700 119.986 C 157.865 119.994,158.000 120.270,158.000 120.600 C 158.000 120.930,158.174 121.200,158.387 121.200 C 158.601 121.200,158.660 121.500,158.519 121.866 C 158.348 122.313,158.417 122.436,158.732 122.242 C 159.020 122.064,159.200 122.218,159.200 122.645 C 159.200 123.493,160.329 124.800,161.062 124.800 C 161.369 124.800,161.600 125.229,161.600 125.800 C 161.600 126.422,161.827 126.800,162.200 126.800 C 162.583 126.800,162.800 127.185,162.800 127.867 C 162.800 128.453,162.901 128.832,163.024 128.709 C 163.354 128.379,165.200 130.338,165.200 131.018 C 165.200 131.338,165.351 131.600,165.536 131.600 C 165.720 131.600,166.077 132.050,166.327 132.600 C 166.578 133.150,167.037 133.600,167.349 133.600 C 167.660 133.600,168.018 133.870,168.145 134.200 C 168.271 134.530,168.651 134.800,168.987 134.800 C 169.734 134.800,169.831 136.640,169.100 136.935 C 168.825 137.046,169.005 137.151,169.500 137.168 C 169.995 137.186,170.400 137.433,170.400 137.719 C 170.400 138.004,170.932 138.679,171.583 139.219 C 172.376 139.876,172.782 140.596,172.815 141.400 C 172.841 142.060,172.954 142.375,173.065 142.100 C 173.383 141.311,174.000 141.517,174.000 142.413 C 174.000 142.859,174.270 143.329,174.600 143.455 C 174.930 143.582,175.200 143.936,175.200 144.243 C 175.200 144.917,175.394 144.933,176.526 144.351 C 177.246 143.981,177.312 143.995,176.900 144.431 C 176.056 145.324,176.716 147.204,177.886 147.238 C 178.059 147.243,178.175 147.506,178.144 147.823 C 178.114 148.141,178.249 148.400,178.444 148.400 C 178.640 148.400,178.800 148.691,178.800 149.047 C 178.800 149.482,179.045 149.629,179.549 149.497 C 180.139 149.343,180.254 149.472,180.089 150.101 C 179.960 150.597,180.131 151.042,180.540 151.270 C 180.903 151.474,181.200 152.008,181.200 152.457 C 181.200 152.925,181.526 153.360,181.963 153.474 C 182.383 153.584,182.816 154.017,182.926 154.437 C 183.035 154.857,183.433 155.200,183.809 155.200 C 184.323 155.200,184.446 155.449,184.302 156.200 C 184.197 156.750,184.266 157.200,184.455 157.200 C 184.916 157.200,186.400 158.703,186.400 159.171 C 186.400 159.375,186.712 159.601,187.092 159.675 C 187.525 159.758,187.787 160.182,187.792 160.804 C 187.798 161.485,188.011 161.784,188.468 161.750 C 188.882 161.719,189.056 161.909,188.926 162.250 C 188.809 162.552,188.924 162.800,189.181 162.800 C 189.437 162.800,189.551 162.956,189.433 163.147 C 188.960 163.912,190.732 164.952,191.492 164.355 C 192.118 163.864,192.143 163.873,191.709 164.430 C 191.169 165.124,191.359 166.920,191.996 167.132 C 192.218 167.206,192.414 167.567,192.432 167.933 C 192.451 168.343,192.540 168.409,192.664 168.104 C 192.902 167.515,194.000 168.428,194.000 169.214 C 194.000 169.473,194.270 169.582,194.600 169.455 C 195.062 169.278,195.200 169.544,195.200 170.613 C 195.200 171.603,195.379 172.000,195.824 172.000 C 196.193 172.000,196.331 171.812,196.162 171.538 C 195.978 171.241,196.053 171.185,196.373 171.383 C 196.646 171.552,196.781 172.030,196.672 172.445 C 196.552 172.907,196.682 173.200,197.010 173.200 C 197.304 173.200,197.602 173.605,197.672 174.100 C 197.749 174.637,198.062 174.981,198.449 174.953 C 198.894 174.921,199.036 175.140,198.902 175.653 C 198.763 176.184,198.922 176.402,199.453 176.406 C 200.082 176.411,200.105 176.474,199.600 176.800 C 199.200 177.058,199.167 177.190,199.500 177.194 C 199.775 177.197,200.000 177.470,200.000 177.800 C 200.000 178.423,200.608 178.625,200.901 178.100 C 200.993 177.935,201.025 177.996,200.971 178.236 C 200.812 178.951,201.516 179.793,202.277 179.797 C 203.143 179.801,203.486 181.173,202.739 181.646 C 202.344 181.896,202.333 181.989,202.697 181.994 C 202.970 181.997,203.675 182.540,204.263 183.200 C 204.851 183.860,205.617 184.403,205.966 184.406 C 206.521 184.411,206.526 184.460,206.000 184.800 C 205.600 185.058,205.567 185.190,205.900 185.194 C 206.175 185.197,206.400 185.520,206.400 185.911 C 206.400 186.763,207.644 187.919,208.319 187.694 C 208.621 187.593,208.800 187.973,208.800 188.718 C 208.800 189.951,209.634 191.010,210.201 190.497 C 210.381 190.333,210.404 190.416,210.253 190.680 C 210.095 190.955,210.324 191.345,210.789 191.594 C 211.235 191.833,211.600 192.273,211.600 192.571 C 211.600 192.870,211.890 193.226,212.245 193.362 C 212.655 193.519,212.815 193.900,212.683 194.405 C 212.568 194.843,212.638 195.100,212.837 194.977 C 213.037 194.854,213.200 194.954,213.200 195.200 C 213.200 195.446,213.384 195.533,213.610 195.394 C 213.835 195.255,213.980 195.289,213.931 195.470 C 213.742 196.166,214.480 197.600,215.027 197.600 C 215.342 197.600,215.600 197.870,215.600 198.200 C 215.600 198.530,215.791 198.800,216.024 198.800 C 216.257 198.800,216.336 198.980,216.200 199.200 C 216.064 199.420,216.098 199.606,216.276 199.613 C 216.454 199.619,216.946 200.099,217.368 200.678 C 217.836 201.320,217.915 201.598,217.568 201.389 C 217.083 201.097,217.080 201.145,217.549 201.723 C 217.851 202.095,218.455 202.400,218.892 202.400 C 219.433 202.400,219.612 202.591,219.455 203.000 C 219.329 203.330,219.399 203.600,219.613 203.600 C 219.826 203.600,220.000 203.870,220.000 204.200 C 220.000 204.530,220.168 204.800,220.373 204.800 C 220.578 204.800,220.870 205.191,221.022 205.668 C 221.173 206.146,222.085 207.336,223.049 208.313 C 224.012 209.290,224.800 210.352,224.800 210.673 C 224.800 211.532,225.849 212.433,226.541 212.167 C 226.982 211.998,227.088 212.144,226.939 212.713 C 226.814 213.191,226.976 213.582,227.361 213.730 C 227.712 213.865,228.099 214.676,228.244 215.585 C 228.462 216.945,228.652 217.200,229.451 217.200 C 230.028 217.200,230.400 217.435,230.400 217.800 C 230.400 218.139,230.758 218.400,231.224 218.400 C 231.683 218.400,231.935 218.581,231.794 218.809 C 231.384 219.473,232.529 221.600,233.298 221.600 C 233.684 221.600,234.000 221.791,234.000 222.024 C 234.000 222.257,234.163 222.346,234.363 222.223 C 234.562 222.100,234.634 222.347,234.523 222.772 C 234.365 223.375,234.487 223.502,235.075 223.349 C 235.689 223.188,235.818 223.359,235.773 224.276 C 235.700 225.750,235.981 226.459,236.510 226.132 C 236.777 225.967,236.841 226.117,236.681 226.534 C 236.496 227.016,236.642 227.200,237.213 227.200 C 237.646 227.200,238.000 227.470,238.000 227.800 C 238.000 228.130,238.238 228.400,238.529 228.400 C 238.821 228.400,239.226 229.075,239.429 229.900 C 239.664 230.848,240.131 231.545,240.700 231.795 C 241.195 232.012,241.600 232.528,241.600 232.942 C 241.600 233.479,241.813 233.638,242.349 233.497 C 242.921 233.348,243.053 233.475,242.906 234.036 C 242.801 234.441,243.000 235.057,243.348 235.405 C 243.697 235.754,244.149 236.337,244.352 236.701 C 244.679 237.285,244.809 237.294,245.461 236.781 C 246.146 236.242,246.158 236.253,245.626 236.930 C 245.068 237.640,245.679 238.646,246.397 238.202 C 246.527 238.122,246.582 238.718,246.519 239.528 C 246.457 240.338,246.508 240.780,246.632 240.512 C 246.942 239.844,247.977 240.794,247.707 241.498 C 247.582 241.825,247.894 242.000,248.604 242.000 C 249.550 242.000,249.668 242.131,249.502 243.000 C 249.374 243.671,249.490 244.000,249.855 244.000 C 250.155 244.000,250.400 244.339,250.400 244.753 C 250.400 245.170,250.757 245.600,251.200 245.716 C 251.640 245.831,252.000 246.225,252.000 246.591 C 252.000 247.341,252.920 248.400,253.571 248.400 C 253.807 248.400,254.000 248.844,254.000 249.387 C 254.000 250.112,254.164 250.312,254.616 250.138 C 254.955 250.008,255.204 250.059,255.169 250.251 C 254.951 251.448,255.250 252.080,255.949 251.897 C 256.535 251.744,256.654 251.873,256.494 252.485 C 256.326 253.125,256.465 253.244,257.244 253.135 C 258.110 253.013,258.196 253.139,258.156 254.481 C 258.131 255.334,258.293 255.928,258.538 255.881 C 258.772 255.837,258.976 256.070,258.991 256.400 C 259.007 256.730,259.300 256.980,259.644 256.955 C 260.101 256.923,260.217 257.179,260.076 257.915 C 259.955 258.545,260.038 258.824,260.298 258.663 C 260.526 258.522,261.006 258.854,261.364 259.401 C 261.722 259.948,262.235 260.351,262.503 260.297 C 262.815 260.235,262.946 260.597,262.867 261.298 C 262.773 262.132,262.886 262.342,263.335 262.169 C 263.707 262.027,264.026 262.251,264.191 262.771 C 264.336 263.227,264.622 263.600,264.827 263.600 C 265.032 263.600,265.200 263.971,265.200 264.424 C 265.200 264.877,265.361 265.148,265.558 265.026 C 265.961 264.777,266.400 265.696,266.400 266.788 C 266.400 267.231,266.671 267.490,267.100 267.456 C 267.485 267.425,267.755 267.625,267.700 267.900 C 267.645 268.175,267.780 268.400,268.000 268.400 C 268.220 268.400,268.400 268.220,268.400 268.000 C 268.400 267.780,268.576 267.600,268.790 267.600 C 269.005 267.600,269.084 268.095,268.967 268.700 C 268.801 269.560,269.041 270.106,270.064 271.200 C 270.784 271.970,271.327 272.825,271.269 273.100 C 271.212 273.375,271.430 273.600,271.755 273.600 C 272.079 273.600,272.402 274.005,272.472 274.500 C 272.555 275.086,272.879 275.404,273.400 275.410 C 274.020 275.419,274.183 275.665,274.125 276.510 C 274.083 277.110,274.238 277.600,274.468 277.600 C 275.076 277.600,276.785 279.308,276.793 279.924 C 276.797 280.212,276.978 280.337,277.195 280.203 C 277.418 280.065,277.492 280.217,277.364 280.548 C 277.240 280.873,277.512 281.512,277.969 281.969 C 278.426 282.426,278.800 282.980,278.800 283.200 C 278.800 283.420,278.991 283.600,279.224 283.600 C 279.457 283.600,279.539 283.775,279.407 283.988 C 279.275 284.202,279.640 284.495,280.217 284.640 C 281.001 284.837,281.216 285.096,281.067 285.667 C 280.878 286.388,282.123 288.000,282.868 288.000 C 283.042 288.000,283.295 288.438,283.429 288.973 C 283.599 289.650,283.865 289.873,284.302 289.705 C 284.706 289.550,284.832 289.625,284.653 289.914 C 284.289 290.503,284.784 292.457,285.228 292.183 C 285.417 292.066,285.937 292.337,286.385 292.785 C 286.833 293.233,287.368 293.600,287.573 293.600 C 288.059 293.600,288.524 295.076,288.202 295.596 C 288.065 295.818,288.233 296.000,288.576 296.000 C 288.919 296.000,289.200 296.270,289.200 296.600 C 289.200 296.930,289.368 297.200,289.573 297.200 C 289.778 297.200,290.055 297.542,290.187 297.960 C 290.320 298.378,290.891 298.837,291.456 298.978 C 292.195 299.164,292.431 299.439,292.295 299.957 C 292.192 300.354,292.346 301.111,292.639 301.639 C 292.932 302.168,293.178 302.375,293.186 302.100 C 293.194 301.825,293.374 301.600,293.587 301.600 C 293.801 301.600,293.861 301.896,293.722 302.258 C 293.568 302.661,293.758 303.126,294.211 303.458 C 295.219 304.195,295.620 304.139,295.350 303.300 C 295.184 302.785,295.224 302.739,295.502 303.126 C 295.709 303.415,295.805 304.045,295.714 304.526 C 295.617 305.036,295.882 305.757,296.350 306.257 C 296.791 306.729,297.028 307.253,296.876 307.421 C 296.724 307.590,296.906 307.618,297.280 307.484 C 297.714 307.329,297.893 307.414,297.775 307.720 C 297.536 308.343,264.830 308.422,264.933 307.800 C 264.970 307.580,264.762 307.449,264.470 307.510 C 264.179 307.570,264.047 307.448,264.177 307.238 C 264.307 307.027,264.227 306.740,264.000 306.600 C 263.773 306.460,263.691 306.177,263.817 305.972 C 263.944 305.768,263.767 305.600,263.424 305.600 C 263.081 305.600,262.845 305.440,262.900 305.244 C 263.011 304.847,261.270 303.200,260.739 303.200 C 260.552 303.200,260.400 302.750,260.400 302.200 C 260.400 301.044,258.983 299.439,258.324 299.847 C 258.051 300.016,257.988 299.942,258.164 299.659 C 258.322 299.403,258.170 298.912,257.826 298.568 C 257.481 298.224,257.200 297.626,257.200 297.239 C 257.200 296.852,256.764 296.302,256.230 296.016 C 255.697 295.731,255.149 295.049,255.011 294.502 C 254.874 293.954,254.658 293.608,254.533 293.734 C 254.204 294.062,253.200 292.963,253.200 292.275 C 253.200 291.955,252.822 291.594,252.360 291.474 C 251.898 291.353,251.628 291.078,251.761 290.863 C 252.120 290.283,251.606 289.223,251.067 289.430 C 250.810 289.528,250.344 289.022,250.032 288.305 C 249.322 286.673,248.797 286.314,248.013 286.923 C 247.482 287.336,247.470 287.310,247.927 286.727 C 248.538 285.946,247.695 284.293,246.308 283.551 C 245.718 283.235,245.590 282.876,245.777 282.067 C 245.962 281.269,245.922 281.151,245.618 281.600 C 245.321 282.039,245.211 282.059,245.206 281.676 C 245.203 281.388,245.039 281.252,244.842 281.374 C 244.645 281.496,244.381 281.326,244.254 280.998 C 244.128 280.669,244.244 280.392,244.513 280.383 C 244.781 280.374,244.441 280.059,243.758 279.683 C 243.011 279.273,242.594 278.775,242.712 278.436 C 242.842 278.065,242.707 277.950,242.317 278.100 C 241.869 278.272,241.770 278.092,241.910 277.358 C 242.057 276.591,241.960 276.440,241.448 276.637 C 240.985 276.815,240.800 276.659,240.800 276.092 C 240.800 275.202,239.880 274.253,239.442 274.691 C 239.286 274.848,239.276 274.668,239.420 274.291 C 239.588 273.853,239.452 273.518,239.042 273.361 C 238.689 273.225,238.400 272.774,238.400 272.357 C 238.400 271.941,238.130 271.600,237.800 271.600 C 237.263 271.600,237.026 271.133,237.148 270.314 C 237.171 270.157,236.878 270.141,236.495 270.278 C 236.113 270.415,235.934 270.380,236.097 270.200 C 236.261 270.019,236.036 269.620,235.597 269.313 C 235.108 268.970,234.800 268.300,234.800 267.577 C 234.800 266.838,234.593 266.400,234.243 266.400 C 233.936 266.400,233.575 266.111,233.439 265.758 C 233.288 265.365,232.943 265.213,232.545 265.366 C 232.008 265.572,231.938 265.408,232.139 264.407 C 232.355 263.324,232.278 263.200,231.390 263.200 C 230.757 263.200,230.400 262.974,230.400 262.571 C 230.400 262.226,230.128 261.671,229.796 261.339 C 229.464 261.007,229.295 260.570,229.420 260.368 C 229.545 260.165,229.256 260.000,228.777 260.000 C 228.104 260.000,227.954 259.819,228.116 259.200 C 228.248 258.695,228.128 258.400,227.790 258.400 C 227.496 258.400,227.198 258.009,227.128 257.531 C 227.058 257.054,226.750 256.580,226.444 256.479 C 226.074 256.357,225.995 256.468,226.206 256.810 C 226.408 257.136,226.364 257.225,226.086 257.053 C 225.846 256.905,225.718 256.427,225.802 255.992 C 225.897 255.498,225.737 255.200,225.377 255.200 C 225.060 255.200,224.800 254.883,224.800 254.496 C 224.800 254.109,224.440 253.568,224.000 253.293 C 223.560 253.018,223.200 252.525,223.200 252.197 C 223.200 251.867,222.842 251.600,222.400 251.600 C 221.956 251.600,221.600 251.333,221.600 251.000 C 221.600 250.670,221.445 250.400,221.255 250.400 C 221.066 250.400,220.997 249.947,221.103 249.394 C 221.263 248.559,221.175 248.435,220.582 248.662 C 220.095 248.849,219.960 248.788,220.156 248.471 C 220.317 248.210,219.996 247.560,219.422 246.985 C 218.860 246.423,218.400 245.792,218.400 245.582 C 218.400 245.372,218.150 245.200,217.843 245.200 C 217.537 245.200,217.174 244.750,217.036 244.200 C 216.898 243.650,216.608 243.200,216.392 243.200 C 216.177 243.200,216.000 242.840,216.000 242.400 C 216.000 241.960,215.807 241.600,215.571 241.600 C 214.909 241.600,213.919 240.454,214.195 240.008 C 214.335 239.782,214.185 239.707,213.850 239.836 C 213.410 240.005,213.314 239.850,213.476 239.232 C 213.630 238.643,213.505 238.400,213.047 238.400 C 212.656 238.400,212.400 238.067,212.400 237.557 C 212.400 237.006,212.209 236.788,211.850 236.926 C 211.509 237.056,211.319 236.882,211.350 236.468 C 211.383 236.028,211.106 235.809,210.540 235.828 C 209.853 235.849,209.713 235.668,209.847 234.928 C 209.958 234.320,209.823 234.000,209.458 234.000 C 209.151 234.000,208.790 233.448,208.655 232.773 C 208.518 232.092,208.230 231.658,208.005 231.797 C 207.782 231.935,207.600 231.756,207.600 231.400 C 207.600 231.044,207.420 230.864,207.200 231.000 C 206.980 231.136,206.800 231.037,206.800 230.781 C 206.800 230.524,206.530 230.418,206.200 230.545 C 205.792 230.701,205.600 230.523,205.600 229.987 C 205.600 229.554,205.825 229.197,206.100 229.194 C 206.438 229.190,206.409 229.067,206.011 228.815 C 205.622 228.569,205.317 228.605,205.117 228.921 C 204.941 229.197,204.810 228.849,204.806 228.100 C 204.802 227.259,204.603 226.800,204.243 226.800 C 203.937 226.800,203.570 226.334,203.427 225.764 C 203.258 225.092,202.968 224.803,202.604 224.943 C 202.256 225.077,202.116 224.962,202.239 224.644 C 202.347 224.360,202.158 223.897,201.818 223.615 C 201.478 223.333,201.200 222.946,201.200 222.756 C 201.200 222.170,199.878 220.828,199.519 221.050 C 199.333 221.165,199.204 221.111,199.233 220.930 C 199.375 220.054,198.650 218.772,198.127 218.973 C 197.814 219.093,197.637 219.058,197.732 218.895 C 198.037 218.377,197.223 216.738,196.793 217.004 C 196.566 217.145,196.406 217.111,196.437 216.930 C 196.610 215.938,196.320 215.455,196.000 216.200 C 195.713 216.867,195.652 216.886,195.628 216.313 C 195.613 215.934,195.375 215.680,195.100 215.747 C 194.825 215.814,194.735 215.793,194.900 215.701 C 195.065 215.609,195.200 215.008,195.200 214.367 C 195.200 213.725,195.065 213.221,194.900 213.247 C 194.087 213.376,193.675 213.129,193.484 212.400 C 193.369 211.960,192.988 211.600,192.637 211.600 C 192.267 211.600,192.000 211.265,192.000 210.800 C 192.000 210.332,191.733 210.000,191.357 210.000 C 190.955 210.000,190.799 209.779,190.941 209.411 C 191.065 209.086,190.924 208.681,190.628 208.511 C 190.332 208.340,190.022 207.840,189.941 207.400 C 189.859 206.960,189.422 206.547,188.970 206.482 C 188.447 206.407,187.965 205.858,187.646 204.976 C 187.370 204.212,187.000 203.676,186.825 203.785 C 186.649 203.893,186.507 203.671,186.508 203.291 C 186.513 201.467,186.385 201.120,185.789 201.349 C 185.029 201.640,183.876 200.360,183.578 198.893 C 183.456 198.292,183.141 197.845,182.878 197.900 C 182.615 197.955,182.400 197.849,182.400 197.664 C 182.400 197.480,181.954 197.125,181.408 196.876 C 180.760 196.581,180.497 196.212,180.651 195.812 C 180.804 195.413,180.653 195.200,180.216 195.200 C 179.715 195.200,179.614 194.986,179.816 194.350 C 179.984 193.820,179.934 193.594,179.682 193.749 C 179.284 193.996,178.295 191.838,178.646 191.488 C 178.745 191.388,178.369 191.357,177.811 191.419 C 177.253 191.480,176.886 191.384,176.996 191.207 C 177.238 190.815,176.231 188.790,175.600 188.400 C 175.351 188.246,175.097 187.778,175.036 187.360 C 174.974 186.942,174.583 186.533,174.166 186.452 C 173.266 186.277,172.287 185.003,171.978 183.605 C 171.856 183.052,171.559 182.639,171.319 182.686 C 171.061 182.737,170.972 182.427,171.103 181.928 C 171.294 181.199,171.183 181.110,170.297 181.279 C 169.446 181.442,169.296 181.342,169.420 180.695 C 169.533 180.112,169.392 179.961,168.863 180.099 C 168.289 180.250,168.186 180.078,168.316 179.190 C 168.405 178.582,168.254 177.957,167.977 177.786 C 167.632 177.573,167.577 177.639,167.800 178.000 C 168.010 178.339,167.967 178.427,167.679 178.249 C 167.435 178.098,167.340 177.699,167.469 177.363 C 167.624 176.961,167.412 176.676,166.852 176.529 C 166.383 176.407,166.000 176.037,166.000 175.707 C 166.000 175.292,165.709 175.162,165.057 175.287 C 164.175 175.456,164.134 175.381,164.414 174.136 C 164.586 173.374,164.562 172.900,164.357 173.026 C 164.161 173.148,164.000 173.046,164.000 172.800 C 164.000 172.554,163.820 172.464,163.600 172.600 C 163.380 172.736,163.200 172.567,163.200 172.224 C 163.200 171.881,163.020 171.600,162.800 171.600 C 161.972 171.600,160.800 169.959,160.800 168.800 C 160.800 168.140,160.620 167.600,160.400 167.600 C 160.180 167.600,160.000 167.309,160.000 166.953 C 160.000 166.481,159.733 166.358,159.012 166.496 C 158.469 166.599,158.107 166.551,158.208 166.388 C 158.309 166.224,158.123 165.868,157.796 165.596 C 157.468 165.324,157.200 164.875,157.200 164.597 C 157.200 163.724,156.034 161.800,155.506 161.800 C 155.228 161.800,154.942 161.392,154.871 160.894 C 154.801 160.396,154.576 160.091,154.371 160.218 C 154.167 160.344,154.000 160.246,154.000 160.000 C 154.000 159.754,153.846 159.648,153.658 159.764 C 153.470 159.881,153.401 159.531,153.504 158.988 C 153.648 158.236,153.523 158.000,152.980 158.000 C 152.588 158.000,152.385 157.882,152.530 157.737 C 152.922 157.344,151.976 156.368,151.493 156.666 C 151.264 156.808,151.191 156.738,151.331 156.512 C 151.471 156.286,151.138 155.765,150.592 155.355 C 150.047 154.946,149.600 154.243,149.600 153.794 C 149.600 152.945,148.675 151.944,147.457 151.477 C 147.068 151.328,146.849 151.045,146.970 150.848 C 147.092 150.652,146.854 150.403,146.442 150.295 C 145.876 150.147,145.741 149.841,145.893 149.049 C 146.042 148.267,145.929 148.000,145.447 148.000 C 145.091 148.000,144.800 147.730,144.800 147.400 C 144.800 147.070,144.530 146.800,144.200 146.800 C 143.870 146.800,143.600 146.462,143.600 146.049 C 143.600 145.091,142.592 144.241,141.918 144.630 C 141.633 144.794,141.533 144.781,141.697 144.601 C 141.860 144.421,141.770 143.997,141.497 143.660 C 141.100 143.171,141.101 143.107,141.500 143.347 C 141.775 143.512,142.000 143.457,142.000 143.224 C 142.000 142.991,141.820 142.800,141.600 142.800 C 141.380 142.800,141.200 142.549,141.200 142.243 C 141.200 141.936,140.930 141.582,140.600 141.455 C 140.270 141.329,140.000 140.966,140.000 140.650 C 140.000 140.289,139.727 140.146,139.265 140.267 C 138.650 140.428,138.558 140.268,138.702 139.286 C 138.839 138.353,138.703 138.068,138.037 137.894 C 137.577 137.773,137.200 137.388,137.200 137.037 C 137.200 136.687,136.942 136.400,136.627 136.400 C 136.312 136.400,135.940 136.040,135.800 135.600 C 135.660 135.160,135.378 134.800,135.173 134.800 C 134.968 134.800,134.800 134.447,134.800 134.016 C 134.800 133.097,133.232 131.502,132.576 131.754 C 132.285 131.865,132.194 131.563,132.320 130.904 C 132.455 130.202,132.372 129.970,132.058 130.164 C 131.779 130.337,131.598 130.164,131.594 129.724 C 131.589 129.109,131.528 129.090,131.193 129.600 C 130.885 130.068,130.820 129.980,130.899 129.200 C 130.962 128.574,130.813 128.237,130.500 128.300 C 130.225 128.355,130.000 128.059,130.000 127.643 C 130.000 127.226,129.730 126.782,129.400 126.655 C 129.070 126.529,128.800 126.049,128.800 125.589 C 128.800 125.129,128.620 124.864,128.400 125.000 C 128.180 125.136,128.000 125.046,128.000 124.800 C 128.000 124.554,127.837 124.454,127.637 124.577 C 127.438 124.700,127.371 124.433,127.488 123.984 C 127.606 123.534,127.544 123.195,127.351 123.230 C 126.652 123.359,126.001 123.194,126.047 122.900 C 126.200 121.931,125.922 121.200,125.400 121.200 C 125.070 121.200,124.800 120.930,124.800 120.600 C 124.800 120.270,124.530 120.000,124.200 120.000 C 123.831 120.000,123.600 119.625,123.600 119.024 C 123.600 118.487,123.392 117.919,123.138 117.762 C 122.863 117.591,122.785 117.651,122.945 117.911 C 123.092 118.149,123.026 118.461,122.797 118.602 C 122.568 118.744,122.406 118.711,122.437 118.530 C 122.646 117.327,122.347 116.446,121.800 116.655 C 121.421 116.801,121.200 116.650,121.200 116.246 C 121.200 115.895,120.864 115.397,120.454 115.141 C 119.976 114.842,119.783 114.388,119.917 113.875 C 120.058 113.336,119.975 113.168,119.663 113.361 C 119.408 113.518,119.200 113.484,119.200 113.285 C 119.200 112.686,117.545 110.991,117.089 111.123 C 116.855 111.190,116.920 110.930,117.232 110.546 C 117.601 110.092,117.624 109.952,117.297 110.149 C 116.994 110.331,116.696 110.194,116.546 109.802 C 116.404 109.433,116.042 109.252,115.704 109.382 C 115.294 109.539,115.183 109.421,115.345 109.000 C 115.655 108.191,114.815 106.400,114.126 106.400 C 113.826 106.400,113.416 105.967,113.215 105.439 C 113.014 104.910,112.613 104.336,112.325 104.162 C 111.969 103.948,111.993 104.097,112.400 104.623 C 112.960 105.349,112.952 105.362,112.272 104.828 C 111.860 104.504,111.627 103.940,111.735 103.528 C 111.839 103.128,111.762 102.800,111.563 102.800 C 111.363 102.800,111.200 102.535,111.200 102.210 C 111.200 101.886,110.654 101.338,109.987 100.993 C 109.283 100.629,108.889 100.179,109.049 99.921 C 109.200 99.677,109.152 99.582,108.943 99.712 C 108.733 99.841,108.300 99.765,107.981 99.543 C 107.545 99.240,107.523 99.089,107.894 98.938 C 108.469 98.705,107.466 96.400,106.790 96.400 C 106.575 96.400,106.400 96.036,106.400 95.591 C 106.400 95.117,105.987 94.594,105.400 94.327 C 102.334 92.930,103.908 92.779,120.349 92.891 C 134.381 92.987,136.274 92.928,136.096 92.400 C 135.985 92.070,136.473 92.565,137.181 93.500 C 137.890 94.435,138.745 95.200,139.081 95.200 M171.508 135.275 C 171.261 136.017,170.400 136.140,170.400 135.433 C 170.400 135.085,170.685 134.800,171.033 134.800 C 171.382 134.800,171.595 135.014,171.508 135.275 M224.000 284.200 C 224.000 284.530,223.730 284.800,223.400 284.800 C 222.775 284.800,222.606 284.327,223.067 283.867 C 223.527 283.406,224.000 283.575,224.000 284.200 M235.200 299.433 C 235.200 300.140,234.339 300.017,234.092 299.275 C 234.005 299.014,234.218 298.800,234.567 298.800 C 234.915 298.800,235.200 299.085,235.200 299.433 M242.800 309.000 C 242.800 309.330,242.530 309.600,242.200 309.600 C 241.870 309.600,241.600 309.330,241.600 309.000 C 241.600 308.670,241.870 308.400,242.200 308.400 C 242.530 308.400,242.800 308.670,242.800 309.000 M299.908 309.925 C 299.995 310.186,299.782 310.400,299.433 310.400 C 299.085 310.400,298.800 310.115,298.800 309.767 C 298.800 309.060,299.661 309.183,299.908 309.925 M254.000 324.200 C 254.000 324.530,253.730 324.800,253.400 324.800 C 253.070 324.800,252.800 324.530,252.800 324.200 C 252.800 323.870,253.070 323.600,253.400 323.600 C 253.730 323.600,254.000 323.870,254.000 324.200 " stroke="none" fill="#a4a4a4" fill-rule="evenodd"></path><path id="path1" d="" stroke="none" fill="#ececec" fill-rule="evenodd"></path><path id="path2" d="M389.705 16.494 C 389.696 17.212,389.770 17.585,389.870 17.322 C 389.970 17.060,390.355 16.955,390.726 17.090 C 391.293 17.297,391.274 17.182,390.604 16.368 C 390.167 15.836,389.789 15.352,389.765 15.294 C 389.742 15.236,389.714 15.776,389.705 16.494 M324.501 73.800 C 324.505 74.680,324.587 74.993,324.683 74.495 C 324.779 73.998,324.775 73.278,324.675 72.895 C 324.575 72.513,324.496 72.920,324.501 73.800 M150.400 77.200 C 150.400 77.640,150.580 78.000,150.800 78.000 C 151.020 78.000,151.200 77.640,151.200 77.200 C 151.200 76.760,151.020 76.400,150.800 76.400 C 150.580 76.400,150.400 76.760,150.400 77.200 M285.776 85.775 C 285.008 86.343,285.008 86.348,285.778 86.240 C 286.206 86.179,286.626 85.921,286.712 85.665 C 286.915 85.055,286.717 85.078,285.776 85.775 M76.427 91.032 C 76.994 91.716,77.729 91.786,77.512 91.135 C 77.426 90.879,77.041 90.624,76.656 90.567 C 76.093 90.484,76.048 90.576,76.427 91.032 M164.200 95.762 C 164.200 96.291,164.335 96.640,164.500 96.538 C 164.665 96.436,164.800 96.003,164.800 95.576 C 164.800 95.149,164.665 94.800,164.500 94.800 C 164.335 94.800,164.200 95.233,164.200 95.762 M165.521 97.101 C 165.384 97.600,165.436 97.901,165.637 97.777 C 165.837 97.654,166.000 97.743,166.000 97.976 C 166.000 98.209,166.360 98.400,166.800 98.400 C 167.240 98.400,167.600 98.220,167.600 98.000 C 167.600 97.780,167.253 97.600,166.829 97.600 C 166.405 97.600,165.993 97.285,165.913 96.900 C 165.795 96.331,165.722 96.369,165.521 97.101 M274.629 97.829 C 273.849 98.609,273.830 98.840,274.569 98.557 C 274.882 98.436,275.236 98.082,275.357 97.769 C 275.640 97.030,275.409 97.049,274.629 97.829 M108.827 100.232 C 109.394 100.916,110.129 100.986,109.912 100.335 C 109.826 100.079,109.441 99.824,109.056 99.767 C 108.493 99.684,108.448 99.776,108.827 100.232 M111.625 103.651 C 111.590 104.571,112.632 105.395,113.026 104.758 C 113.216 104.451,113.155 104.381,112.858 104.564 C 112.579 104.737,112.245 104.483,112.022 103.926 C 111.778 103.316,111.642 103.222,111.625 103.651 M88.800 107.157 C 88.800 107.354,89.085 107.624,89.433 107.757 C 90.411 108.133,90.508 108.051,89.857 107.400 C 89.177 106.720,88.800 106.633,88.800 107.157 M259.796 114.007 C 259.658 114.230,259.377 114.309,259.172 114.183 C 258.968 114.056,258.800 114.233,258.800 114.576 C 258.800 115.438,259.310 115.357,259.907 114.400 C 260.182 113.960,260.326 113.600,260.227 113.600 C 260.128 113.600,259.934 113.783,259.796 114.007 M257.600 115.620 C 257.600 115.904,257.302 116.466,256.938 116.869 C 256.574 117.271,256.475 117.600,256.718 117.600 C 256.961 117.600,257.304 117.356,257.480 117.059 C 257.656 116.761,258.045 116.439,258.344 116.344 C 258.778 116.206,258.758 116.063,258.244 115.636 C 257.726 115.207,257.600 115.203,257.600 115.620 M98.800 121.000 C 98.800 121.550,98.941 122.000,99.113 122.000 C 99.285 122.000,99.463 121.550,99.508 121.000 C 99.554 120.450,99.413 120.000,99.196 120.000 C 98.978 120.000,98.800 120.450,98.800 121.000 M188.400 127.749 C 188.400 127.789,188.760 128.130,189.200 128.507 C 189.813 129.032,190.000 129.063,190.000 128.643 C 190.000 128.341,189.640 127.999,189.200 127.884 C 188.760 127.769,188.400 127.708,188.400 127.749 M168.800 135.800 C 168.800 136.350,168.980 136.800,169.200 136.800 C 169.420 136.800,169.600 136.350,169.600 135.800 C 169.600 135.250,169.420 134.800,169.200 134.800 C 168.980 134.800,168.800 135.250,168.800 135.800 M170.400 135.433 C 170.400 136.140,171.261 136.017,171.508 135.275 C 171.595 135.014,171.382 134.800,171.033 134.800 C 170.685 134.800,170.400 135.085,170.400 135.433 M234.000 142.447 C 234.000 143.097,233.814 143.245,233.199 143.084 C 232.759 142.969,232.498 143.035,232.619 143.231 C 233.126 144.052,234.663 143.464,234.482 142.519 C 234.262 141.367,234.000 141.328,234.000 142.447 M141.603 143.803 C 141.817 144.062,141.865 144.402,141.709 144.558 C 141.552 144.714,141.723 144.728,142.087 144.588 C 142.861 144.291,142.633 143.333,141.789 143.333 C 141.393 143.333,141.335 143.480,141.603 143.803 M177.600 147.600 C 177.600 148.347,177.707 148.453,178.080 148.080 C 178.453 147.707,178.453 147.493,178.080 147.120 C 177.707 146.747,177.600 146.853,177.600 147.600 M253.200 150.804 C 253.200 151.273,254.666 151.340,254.948 150.885 C 255.055 150.712,254.705 150.534,254.171 150.489 C 253.637 150.445,253.200 150.587,253.200 150.804 M224.200 152.000 C 223.881 152.516,224.310 153.209,224.924 153.168 C 225.267 153.146,225.261 153.081,224.900 152.935 C 224.625 152.824,224.400 152.558,224.400 152.343 C 224.400 152.128,224.580 152.064,224.800 152.200 C 225.020 152.336,225.200 152.257,225.200 152.024 C 225.200 151.487,224.527 151.471,224.200 152.000 M223.232 154.110 C 223.214 154.500,222.750 154.991,222.200 155.200 C 221.035 155.643,220.902 155.935,221.900 155.856 C 222.757 155.788,223.733 154.559,223.461 153.890 C 223.349 153.613,223.249 153.709,223.232 154.110 M245.361 159.666 C 245.400 160.789,246.000 161.321,246.000 160.233 C 246.000 159.921,246.098 159.411,246.217 159.099 C 246.340 158.778,246.193 158.533,245.878 158.533 C 245.525 158.533,245.336 158.946,245.361 159.666 M243.454 162.243 C 243.305 162.706,242.781 163.279,242.291 163.516 C 241.668 163.816,241.592 163.954,242.038 163.973 C 242.859 164.008,244.136 162.604,243.904 161.923 C 243.791 161.593,243.625 161.711,243.454 162.243 M164.200 174.200 C 164.200 174.928,164.335 175.440,164.500 175.338 C 164.665 175.236,164.800 174.724,164.800 174.200 C 164.800 173.676,164.665 173.164,164.500 173.062 C 164.335 172.960,164.200 173.472,164.200 174.200 M230.400 175.791 C 230.400 176.116,229.952 176.675,229.403 177.035 C 228.855 177.394,228.504 177.844,228.622 178.036 C 228.741 178.228,229.369 177.779,230.019 177.040 C 231.272 175.612,231.447 175.200,230.800 175.200 C 230.580 175.200,230.400 175.466,230.400 175.791 M227.910 178.900 C 227.813 179.175,227.866 179.850,228.027 180.400 C 228.282 181.270,228.325 181.205,228.360 179.900 C 228.401 178.377,228.228 177.994,227.910 178.900 M202.358 179.929 C 202.665 180.144,202.806 180.607,202.671 180.960 C 202.536 181.312,202.612 181.600,202.840 181.600 C 203.478 181.600,203.080 179.884,202.400 179.701 C 201.901 179.566,201.894 179.604,202.358 179.929 M230.400 184.200 C 230.400 184.750,230.580 185.200,230.800 185.200 C 231.020 185.200,231.200 184.750,231.200 184.200 C 231.200 183.650,231.020 183.200,230.800 183.200 C 230.580 183.200,230.400 183.650,230.400 184.200 M183.600 198.976 C 183.600 199.513,183.747 200.044,183.928 200.155 C 184.108 200.267,184.177 199.827,184.082 199.179 C 183.872 197.749,183.600 197.635,183.600 198.976 M232.400 222.000 C 232.400 222.220,232.747 222.400,233.171 222.400 C 233.595 222.400,234.007 222.715,234.087 223.100 C 234.205 223.669,234.278 223.631,234.479 222.899 C 234.616 222.400,234.564 222.099,234.363 222.223 C 234.163 222.346,234.000 222.257,234.000 222.024 C 234.000 221.791,233.640 221.600,233.200 221.600 C 232.760 221.600,232.400 221.780,232.400 222.000 M259.934 222.920 C 260.180 223.217,260.305 223.856,260.211 224.340 C 260.117 224.831,260.210 225.118,260.421 224.987 C 261.048 224.600,260.848 222.904,260.143 222.634 C 259.628 222.436,259.583 222.498,259.934 222.920 M235.102 224.200 C 235.207 224.750,235.407 225.200,235.547 225.200 C 235.686 225.200,235.800 224.750,235.800 224.200 C 235.800 223.650,235.600 223.200,235.355 223.200 C 235.097 223.200,234.991 223.619,235.102 224.200 M153.500 228.276 C 153.115 228.376,152.800 228.609,152.800 228.792 C 152.800 228.975,153.160 229.031,153.600 228.916 C 154.040 228.801,154.400 228.548,154.400 228.353 C 154.400 228.159,154.355 228.021,154.300 228.046 C 154.245 228.072,153.885 228.175,153.500 228.276 M267.606 233.876 C 267.615 235.463,268.031 235.905,269.200 235.568 C 270.191 235.282,270.190 235.279,269.053 235.240 C 268.050 235.205,267.931 235.074,268.100 234.190 C 268.206 233.635,268.137 233.085,267.946 232.967 C 267.756 232.849,267.603 233.258,267.606 233.876 M184.032 234.067 C 183.980 235.162,184.445 236.000,185.105 236.000 C 185.660 236.000,185.661 235.928,185.114 235.300 C 184.779 234.915,184.405 234.330,184.284 234.000 C 184.103 233.508,184.057 233.520,184.032 234.067 M248.800 242.800 C 248.800 243.240,248.980 243.600,249.200 243.600 C 249.420 243.600,249.600 243.240,249.600 242.800 C 249.600 242.360,249.420 242.000,249.200 242.000 C 248.980 242.000,248.800 242.360,248.800 242.800 M250.875 245.848 C 251.247 245.958,251.636 246.443,251.741 246.925 C 251.900 247.658,251.920 247.639,251.866 246.804 C 251.821 246.128,251.543 245.782,251.000 245.727 C 250.424 245.669,250.389 245.702,250.875 245.848 M133.784 249.227 C 133.639 249.461,133.591 249.724,133.677 249.811 C 133.952 250.085,135.600 249.522,135.600 249.153 C 135.600 248.653,134.101 248.713,133.784 249.227 M221.600 251.000 C 221.600 251.330,221.780 251.600,222.000 251.600 C 222.220 251.600,222.400 251.330,222.400 251.000 C 222.400 250.670,222.220 250.400,222.000 250.400 C 221.780 250.400,221.600 250.670,221.600 251.000 M223.225 252.051 C 223.197 252.791,224.286 253.847,224.676 253.457 C 224.818 253.316,224.718 253.200,224.454 253.200 C 224.190 253.200,223.811 252.795,223.612 252.300 C 223.368 251.691,223.243 251.610,223.225 252.051 M257.600 254.200 C 257.600 255.063,257.761 255.547,258.000 255.400 C 258.220 255.264,258.400 254.724,258.400 254.200 C 258.400 253.676,258.220 253.136,258.000 253.000 C 257.761 252.853,257.600 253.337,257.600 254.200 M154.806 257.100 C 154.811 257.654,154.885 257.685,155.161 257.249 C 155.365 256.928,155.722 256.828,156.017 257.011 C 156.347 257.214,156.424 257.162,156.238 256.862 C 155.798 256.149,154.799 256.316,154.806 257.100 M153.289 259.023 C 152.800 259.365,152.400 259.916,152.400 260.246 C 152.400 260.577,152.222 260.737,152.005 260.603 C 151.767 260.456,151.718 260.642,151.881 261.066 C 152.112 261.668,152.218 261.611,152.600 260.677 C 152.848 260.070,153.216 259.719,153.424 259.891 C 153.631 260.061,153.668 260.038,153.506 259.840 C 153.345 259.641,153.525 259.242,153.906 258.952 C 154.884 258.210,154.365 258.269,153.289 259.023 M150.851 261.960 C 150.549 262.151,150.384 262.553,150.484 262.853 C 150.611 263.232,150.812 263.125,151.147 262.499 C 151.679 261.505,151.651 261.454,150.851 261.960 M230.400 262.376 C 230.400 262.829,230.580 263.200,230.800 263.200 C 231.020 263.200,231.200 262.941,231.200 262.624 C 231.200 262.307,231.020 261.936,230.800 261.800 C 230.580 261.664,230.400 261.923,230.400 262.376 M263.000 262.400 C 262.864 262.620,263.033 262.800,263.376 262.800 C 263.719 262.800,264.000 263.070,264.000 263.400 C 264.000 263.730,264.283 264.000,264.629 264.000 C 265.200 264.000,265.200 263.943,264.629 263.371 C 264.283 263.026,264.000 262.576,264.000 262.371 C 264.000 261.877,263.311 261.896,263.000 262.400 M210.162 270.462 C 209.978 270.759,210.053 270.815,210.370 270.618 C 210.670 270.433,211.095 270.644,211.455 271.157 C 211.780 271.620,212.260 271.995,212.523 271.988 C 212.785 271.981,212.685 271.792,212.300 271.568 C 211.915 271.344,211.600 270.899,211.600 270.580 C 211.600 269.889,210.568 269.804,210.162 270.462 M273.944 276.059 C 274.127 276.554,274.489 277.000,274.748 277.049 C 275.008 277.099,275.036 277.049,274.810 276.937 C 274.584 276.825,274.400 276.489,274.400 276.190 C 274.400 275.892,274.222 275.537,274.005 275.403 C 273.755 275.249,273.732 275.488,273.944 276.059 M135.493 278.400 C 135.116 278.840,134.946 279.200,135.115 279.200 C 135.284 279.200,135.730 278.840,136.107 278.400 C 136.484 277.960,136.654 277.600,136.485 277.600 C 136.316 277.600,135.870 277.960,135.493 278.400 M276.453 279.600 C 276.383 280.629,277.044 281.383,277.340 280.613 C 277.478 280.253,277.427 280.060,277.226 280.184 C 277.025 280.308,276.778 280.093,276.677 279.705 C 276.548 279.211,276.481 279.180,276.453 279.600 M245.418 282.100 C 245.568 282.595,245.855 283.176,246.056 283.391 C 246.257 283.606,246.219 283.201,245.972 282.491 C 245.465 281.038,244.997 280.708,245.418 282.100 M99.600 287.449 C 99.600 287.980,99.709 288.008,100.200 287.600 C 100.530 287.326,100.800 287.034,100.800 286.951 C 100.800 286.868,100.530 286.800,100.200 286.800 C 99.870 286.800,99.600 287.092,99.600 287.449 M310.400 290.734 C 310.400 291.163,310.650 291.610,310.955 291.727 C 311.345 291.877,311.449 291.710,311.306 291.164 C 311.024 290.084,310.400 289.788,310.400 290.734 M287.612 294.000 C 287.612 294.330,287.787 294.870,288.000 295.200 C 288.345 295.733,288.388 295.733,288.388 295.200 C 288.388 294.870,288.213 294.330,288.000 294.000 C 287.655 293.467,287.612 293.467,287.612 294.000 M116.800 298.733 C 116.800 299.210,116.964 299.600,117.165 299.600 C 117.571 299.600,117.511 298.577,117.078 298.145 C 116.925 297.992,116.800 298.257,116.800 298.733 M88.800 298.776 C 88.800 299.009,88.604 299.200,88.364 299.200 C 87.877 299.200,86.434 300.799,86.413 301.362 C 86.406 301.561,86.805 301.271,87.300 300.716 C 87.795 300.162,88.538 299.529,88.951 299.309 C 89.450 299.045,89.551 298.817,89.251 298.632 C 89.003 298.478,88.800 298.543,88.800 298.776 M233.485 300.648 C 233.123 301.010,235.246 302.819,235.702 302.537 C 235.928 302.397,235.776 302.118,235.351 301.895 C 234.938 301.678,234.402 301.256,234.160 300.956 C 233.919 300.657,233.615 300.519,233.485 300.648 M260.400 302.200 C 260.400 302.750,260.555 303.200,260.745 303.200 C 260.934 303.200,261.003 302.750,260.898 302.200 C 260.793 301.650,260.638 301.200,260.553 301.200 C 260.469 301.200,260.400 301.650,260.400 302.200 M295.884 306.400 C 295.999 306.840,296.341 307.200,296.643 307.200 C 297.063 307.200,297.032 307.013,296.507 306.400 C 296.130 305.960,295.789 305.600,295.749 305.600 C 295.708 305.600,295.769 305.960,295.884 306.400 M241.632 309.100 C 241.654 309.588,241.729 309.635,241.880 309.255 C 242.063 308.794,242.151 308.794,242.442 309.255 C 242.713 309.681,242.789 309.648,242.794 309.100 C 242.797 308.715,242.530 308.400,242.200 308.400 C 241.870 308.400,241.614 308.715,241.632 309.100 M298.800 309.767 C 298.800 310.115,299.085 310.400,299.433 310.400 C 300.140 310.400,300.017 309.539,299.275 309.292 C 299.014 309.205,298.800 309.418,298.800 309.767 M75.246 313.100 C 75.220 313.613,74.942 314.000,74.600 314.000 C 74.270 314.000,74.000 314.270,74.000 314.600 C 74.000 314.942,73.613 315.220,73.100 315.246 C 72.390 315.283,72.353 315.332,72.921 315.480 C 73.875 315.727,75.727 313.875,75.480 312.921 C 75.332 312.353,75.283 312.390,75.246 313.100 M252.832 324.100 C 252.814 324.485,253.070 324.800,253.400 324.800 C 253.730 324.800,253.997 324.485,253.994 324.100 C 253.989 323.552,253.913 323.519,253.642 323.945 C 253.351 324.406,253.263 324.406,253.080 323.945 C 252.929 323.565,252.854 323.612,252.832 324.100 M91.467 326.067 C 91.063 326.507,90.840 326.974,90.971 327.104 C 91.213 327.347,92.364 326.043,92.387 325.500 C 92.405 325.089,92.309 325.147,91.467 326.067 M336.464 326.915 C 336.519 327.732,336.702 328.400,336.872 328.400 C 337.041 328.400,337.069 327.815,336.933 327.100 C 336.582 325.260,336.346 325.166,336.464 326.915 " stroke="none" fill="#a8a4a4" fill-rule="evenodd"></path><path id="path3" d="" stroke="none" fill="#b4ccc8" fill-rule="evenodd"></path><path id="path4" d="" stroke="none" fill="#b4a4cc" fill-rule="evenodd"></path></g></svg>